<?xml version="1.0" encoding="UTF-8" standalone="no"?>
<!DOCTYPE svg PUBLIC "-//W3C//DTD SVG 1.1//EN" "http://www.w3.org/Graphics/SVG/1.1/DTD/svg11.dtd">
<svg width="100%" height="100%" viewBox="0 0 554 120" version="1.1" xmlns="http://www.w3.org/2000/svg" xmlns:xlink="http://www.w3.org/1999/xlink" xml:space="preserve" xmlns:serif="http://www.serif.com/" style="fill-rule:evenodd;clip-rule:evenodd;stroke-linejoin:round;stroke-miterlimit:2;">
    <g transform="matrix(0.942992,0,0,0.942992,15.8008,10.6929)">
        <g>
            <g transform="matrix(1,0,0,1,-56.11,-56.03)">
                <path d="M81.89,112.71C73.93,112.71 67.67,110.98 63.11,107.52C54.01,100.62 55.11,85.6 58.9,76.1C64.26,62.5 77.12,56.23 91.19,56.23C101.25,56.23 115.82,58.69 115.82,71.66C115.82,88.54 97.82,90.66 84.82,90.66C81.463,90.674 78.108,90.5 74.77,90.14C73.45,98.34 78.71,99.4 85.7,99.5C90.848,99.413 95.956,98.571 100.86,97C102.22,96.63 103.07,96.41 103.86,97.72L107.76,105.85C108.35,106.85 107.89,107.65 106.38,108.32C98.96,111.61 89.79,112.74 81.88,112.74M150.88,67.69C145.78,67.69 141.88,69.89 140.95,75.1L136.3,100.2C139.46,100.7 142.651,100.974 145.85,101.02C150.99,101.02 159.54,99.61 159.54,92.79C159.54,87.29 151.65,87.65 147.86,87.65C146.27,87.65 145.01,87.49 145.35,85.59L146.23,80.65C146.62,78.48 148.35,78.34 150.23,78.18C153.43,77.92 158.77,76.72 158.77,72.52C158.79,68.63 153.77,67.65 150.88,67.65L150.88,67.69ZM122.88,74.99C125.35,60.48 139,56 152,56C160.36,56 175.85,58.1 176.25,69.37C176.44,74.8 172.46,79.28 167.58,81.1L167.58,81.61C173.21,83.21 177.88,86.61 177.88,92.92C177.88,108.66 157.53,112.67 145.46,112.67C136.92,112.67 127.29,111.98 119.33,108.67C117.79,108.03 117.33,107.21 117.57,105.59L122.88,74.99ZM195,130.81C194.71,132.51 193.63,132.56 192.11,132.56L179.44,132.56C178.05,132.56 176.89,132.51 177.18,130.81L188.74,63.74C189.056,62.197 190.22,60.96 191.74,60.55C200.11,57.4 209.61,56.43 218.5,56.43C233.91,56.43 245.91,62.18 245.5,79.27C245,100 232.17,112.5 211.86,112.5C207.351,112.531 202.849,112.119 198.42,111.27L195,130.81ZM214.87,69.3C211.696,69.292 208.532,69.671 205.45,70.43L200.67,98.51C203.878,99.285 207.169,99.664 210.47,99.64C221.87,99.64 227.31,90.78 227.31,80.2C227.31,72.24 222.29,69.3 214.87,69.3ZM284.23,68.89C276.54,68.89 271.65,74.26 269.78,81.34C267.54,89.83 267.96,100.06 279.08,100.06C290.2,100.06 294.41,88.68 294.41,79.18C294.41,72.54 290.91,68.89 284.23,68.89ZM285.86,56.24C300.62,56.24 312.86,62.49 312.86,78.77C312.86,100.99 297.86,112.93 277.05,112.71C262.89,112.56 250.16,107.45 250.16,91.42C250.074,86.297 250.97,81.205 252.8,76.42C258.39,62.5 271.7,56.23 285.87,56.23L285.86,56.24ZM347.7,68.58C344.967,68.528 342.235,68.698 339.53,69.09L332.53,109.72C332.23,111.47 331.26,111.57 329.64,111.57L317.17,111.57C315.78,111.57 314.48,111.43 314.78,109.72L322.45,65.59C323.33,60.52 326.4,58.07 331.37,57.26C337.198,56.468 343.08,56.133 348.96,56.26C359.8,56.26 374.96,57.62 377.86,70.51C378.602,74.614 378.558,78.822 377.73,82.91L373.21,109.76C372.91,111.52 371.94,111.61 370.32,111.61L357.75,111.61C356.35,111.61 355.07,111.47 355.36,109.76L360.14,82C360.69,78.83 361.07,74.65 358.89,72C356.36,68.82 351.34,68.58 347.7,68.58ZM486.15,68.89C478.67,68.89 473.44,73.62 471.01,80.46C467.1,91.46 468.9,100.38 482.26,100.16C485.188,100.089 488.098,99.676 490.93,98.93C492.42,89.18 493.99,79.36 496.08,69.72C493.505,69.28 490.902,69.023 488.29,68.95C487.45,68.9 486.73,68.89 486.15,68.89ZM487,56.34C495.535,56.365 504.042,57.297 512.38,59.12C514.49,59.58 515.15,60.33 514.77,62.41C512.01,77.29 509.42,92.26 507.36,107.26C507.244,108.266 506.477,109.082 505.48,109.26C496.806,111.661 487.84,112.839 478.84,112.76C463.84,112.76 451.08,108.08 451.08,91.76C451.009,86.742 451.801,81.75 453.42,77C458.62,62.32 472.29,56.34 487,56.34ZM441,108.15L440.75,109.63L440.75,109.71C440.43,111.41 439.51,111.58 437.88,111.58L425.45,111.58C423.61,111.58 422.95,110.91 423.19,109.52L430,69.71L415.15,69.71C413.46,76.9 411.9,84.15 409.75,91.21C405.75,104.28 398.06,110.48 385,113.63C383.7,113.94 382,114 381.36,112.4L378.46,105C377.72,103.1 378.61,102.35 380.34,101.71C387.98,98.88 391.41,95.64 394.22,87.26C396.51,80.44 397.79,71.7 399.81,63.65C401,58.92 403.81,57.58 408.48,57.58L442.48,57.58C447.11,57.58 449.48,58.95 448.64,63.83L448.64,63.95L441,108.15ZM533.37,109.52C533.05,111.43 532.16,111.58 530.37,111.58L518.08,111.58C516.24,111.58 515.46,110.9 515.69,109.52L524.36,59.52C524.59,58.21 525.57,57.52 527.25,57.52L539.56,57.52C541.25,57.52 542.26,57.52 541.95,59.52L539.06,77.11L561.68,77.11L564.68,59.52C564.9,58.21 565.94,57.52 567.68,57.52L580,57.52C581.67,57.52 582.72,57.52 582.39,59.52L573.72,109.52C573.39,111.42 572.67,111.58 570.83,111.58L558.54,111.58C556.7,111.58 555.92,110.9 556.15,109.52L559.67,88.85L536.93,88.85L533.37,109.52ZM90.18,68.68C83.18,68.68 77.93,72.82 76.48,79.68C80.955,80.048 85.454,79.998 89.92,79.53C93.58,79.11 98.21,78.16 98.21,73.62C98.22,69.37 93.42,68.68 90.18,68.68Z" style="fill:rgb(0,91,149);fill-rule:nonzero;"/>
            </g>
            <g transform="matrix(1,0,0,1,-56.11,-56.03)">
                <path d="M580.15,129.75C455.39,105.95 336.93,119.75 210.46,158.81C206.91,159.91 206.46,161.28 211.04,160.3C327.69,135.18 454.35,126.84 579.7,132.3C582.23,132.41 585.89,132.49 585.88,131.86C585.87,131.23 584.73,130.6 580.15,129.73" style="fill:rgb(245,105,32);fill-rule:nonzero;"/>
            </g>
        </g>
        <g>
            <g transform="matrix(1,0,0,1,-56.11,-56.03)">
                <path d="M601,58.8C605.345,58.8 608.92,62.375 608.92,66.72C608.92,71.065 605.345,74.64 601,74.64C596.655,74.64 593.08,71.065 593.08,66.72C593.085,62.377 596.657,58.805 601,58.8M601,57.8C596.107,57.8 592.08,61.827 592.08,66.72C592.08,71.613 596.107,75.64 601,75.64C605.893,75.64 609.92,71.613 609.92,66.72C609.915,61.83 605.89,57.81 601,57.81L601,57.8Z" style="fill:rgb(0,91,149);fill-rule:nonzero;"/>
            </g>
            <g transform="matrix(1,0,0,1,-56.11,-56.03)">
                <path d="M602.52,67C602.852,67.092 603.147,67.289 603.36,67.56C603.545,67.832 603.683,68.133 603.77,68.45L604.59,71.45C604.608,71.495 604.608,71.545 604.59,71.59C604.572,71.635 604.52,71.66 604.44,71.66L603.54,71.66C603.54,71.66 603.46,71.6 603.44,71.53L602.69,68.82C602.623,68.567 602.515,68.327 602.37,68.11C602.254,67.939 602.104,67.792 601.93,67.68C601.759,67.573 601.569,67.498 601.37,67.46C601.153,67.417 600.931,67.397 600.71,67.4L598.52,67.4L598.52,71.5C598.541,71.548 598.541,71.602 598.52,71.65C598.471,71.666 598.419,71.666 598.37,71.65L597.66,71.65C597.611,71.665 597.559,71.665 597.51,71.65C597.489,71.602 597.489,71.548 597.51,71.5L597.51,62.5C597.497,62.325 597.547,62.152 597.65,62.01C597.787,61.881 597.973,61.819 598.16,61.84L601.33,61.84C601.739,61.833 602.146,61.901 602.53,62.04C602.869,62.166 603.179,62.36 603.44,62.61C603.691,62.853 603.889,63.146 604.02,63.47C604.155,63.814 604.223,64.181 604.22,64.55C604.228,65.077 604.082,65.595 603.8,66.04C603.516,66.48 603.088,66.808 602.59,66.97L602.52,67ZM603.05,64.59C603.051,64.366 603.017,64.143 602.95,63.93C602.883,63.718 602.77,63.524 602.62,63.36C602.442,63.197 602.23,63.074 602,63C601.719,62.893 601.42,62.842 601.12,62.85L598.54,62.85L598.54,66.41L601.04,66.41C601.591,66.459 602.138,66.278 602.55,65.91C602.889,65.557 603.07,65.08 603.05,64.59Z" style="fill:rgb(0,91,149);fill-rule:nonzero;"/>
            </g>
        </g>
    </g>
</svg>
