<?xml version="1.0" encoding="UTF-8" standalone="no"?>
<!DOCTYPE svg PUBLIC "-//W3C//DTD SVG 1.1//EN" "http://www.w3.org/Graphics/SVG/1.1/DTD/svg11.dtd">
<svg width="100%" height="100%" viewBox="0 0 791 330" version="1.1" xmlns="http://www.w3.org/2000/svg" xmlns:xlink="http://www.w3.org/1999/xlink" xml:space="preserve" xmlns:serif="http://www.serif.com/" style="fill-rule:evenodd;clip-rule:evenodd;stroke-linejoin:round;stroke-miterlimit:2;">
    <g transform="matrix(1.0889,0,0,1.0889,-36.3529,-90.9593)">
        <g transform="matrix(0.75763,0,0,0.75763,42.9358,-67.2733)">
            <g transform="matrix(1,0,0,1,-23.4,0)">
                <path d="M646.2,374.1L646.2,304.8L669.4,304.8L669.4,337.1C669.4,339.5 668.9,342.1 668.9,342.1L669.9,342.1L695.2,304.8L714.9,304.8L714.9,374.1L694.2,374.1L694.2,341.6C694.2,339.3 694.7,337 694.7,337L693.7,337L668.4,374.1L646.2,374.1Z" style="fill:rgb(102,58,42);fill-rule:nonzero;"/>
            </g>
            <g transform="matrix(1,0,0,1,-23.4,0)">
                <path d="M597.9,354.4C606.4,354.4 612,347.8 612,339.6C612,331.2 606.4,324.6 597.9,324.6C589.7,324.6 583.8,331.2 583.8,339.6C583.8,347.8 589.7,354.4 597.9,354.4M597.9,303C620,303 636.5,318.6 636.5,339.6C636.5,360.4 620,376 597.9,376C576,376 559.5,360.4 559.5,339.6C559.5,318.7 576,303 597.9,303" style="fill:rgb(102,58,42);fill-rule:nonzero;"/>
            </g>
            <g transform="matrix(1,0,0,1,-23.4,0)">
                <path d="M137.2,446.4C151.2,446.4 160.7,436.2 160.7,422.8C160.7,409.2 151.2,398.8 137.2,398.8C123.5,398.8 113.9,409.1 113.9,422.8C113.9,436.2 123.4,446.4 137.2,446.4M137.2,386.1C158.9,386.1 174.3,401.7 174.3,422.8C174.3,443.6 158.9,459.1 137.2,459.1C115.7,459.1 100.2,443.6 100.2,422.8C100.2,401.8 115.7,386.1 137.2,386.1" style="fill:rgb(102,58,42);fill-rule:nonzero;"/>
            </g>
            <g transform="matrix(1,0,0,1,-23.4,0)">
                <path d="M449.7,397.7C462.2,397.7 468.7,405.8 469.8,416.4L429.8,416.4C431.8,405.4 439.4,397.7 449.7,397.7M482.5,427.2C482.6,425.8 482.7,424.3 482.7,422.9C482.7,401.8 471.8,386.2 449,386.2C429.5,386.2 415.4,401.8 415.4,422.9C415.4,424.4 415.5,425.8 415.6,427.2C417.2,445.3 428.8,459.2 453,459.2C464.7,459.2 474.6,455.6 481.8,449.8L476.4,439.9C471.1,443.9 463,447.6 453.4,447.6C438.3,447.6 431,439.4 429.6,427.3L429.7,427.3L482.5,427.2Z" style="fill:rgb(102,58,42);fill-rule:nonzero;"/>
            </g>
            <g transform="matrix(1,0,0,1,-23.4,0)">
                <path d="M543.1,388L543.1,416.4L506,416.4L506,388L492.2,388L492.2,457.3L506,457.3L506,427.1L543.1,427.1L543.1,457.3L556.9,457.3L556.9,388L543.1,388Z" style="fill:rgb(102,58,42);fill-rule:nonzero;"/>
            </g>
            <g transform="matrix(1,0,0,1,-23.4,0)">
                <path d="M629.6,388L566.5,388L566.5,400.3L591.1,400.3L591.1,457.3L604.9,457.3L604.9,400.3L629.6,400.3L629.6,388Z" style="fill:rgb(102,58,42);fill-rule:nonzero;"/>
            </g>
            <g transform="matrix(1,0,0,1,-23.4,0)">
                <rect x="703.7" y="388" width="13.8" height="69.3" style="fill:rgb(102,58,42);"/>
            </g>
            <g transform="matrix(1,0,0,1,-23.4,0)">
                <path d="M214,420.9L214,420.3C214,420.3 215.3,419.9 216.4,418.6C217.6,417.3 242.8,388.1 242.8,388.1L227.3,388.1L203,416.5L197.5,416.5L197.5,388L183.7,388L183.7,457.3L197.5,457.3L197.5,427.1L203.8,427.1L230.1,457.3L247.3,457.3C247.3,457.3 217.8,424.1 216.6,422.7C215.4,421.3 214,420.9 214,420.9" style="fill:rgb(102,58,42);fill-rule:nonzero;"/>
            </g>
            <g transform="matrix(1,0,0,1,-23.4,0)">
                <path d="M661.1,446.9C656.8,446.9 652.9,446.6 652.9,446.6L652.9,421.6C652.9,421.6 655.9,420.8 661.2,420.8C672.7,420.8 677.8,425.3 677.8,433.6C677.9,441.7 673.3,446.9 661.1,446.9M663.6,409.2C657.2,409.2 652.9,410 652.9,410L652.9,388L639.1,388L639.1,457.3C639.1,457.3 650.4,458.4 662.2,458.4C683.9,458.4 691,445.2 691,433C691,420.7 684.6,409.2 663.6,409.2" style="fill:rgb(102,58,42);fill-rule:nonzero;"/>
            </g>
            <g transform="matrix(1,0,0,1,-23.4,0)">
                <path d="M57.8,446.4C43.9,446.4 36.5,436.2 36.8,422.8C37.1,409.2 45,398.8 58.9,398.8C66.6,398.8 76.9,405.8 76.9,418.5L76.9,437.6C72.6,443.1 65.9,446.4 57.8,446.4M77.5,388L77.1,396.7L76.2,396.7C71.8,390.2 63,386.1 56.1,386.1C35.9,386.1 23.9,401.7 23.4,422.8C22.9,443.6 35.1,459.1 55.3,459.1C64.6,459.1 70.3,456.5 76,449.8L76.9,449.8L76.9,456C76.9,469.4 67.6,474.7 57.1,474.7C47.4,474.7 39.9,471.1 35.3,468.3L30.8,479.7C35.2,482 43.4,486.9 57.1,486.9C76.5,486.9 90.7,475.4 90.7,453.2L90.7,388L77.5,388Z" style="fill:rgb(102,58,42);fill-rule:nonzero;"/>
            </g>
            <g transform="matrix(1,0,0,1,-23.4,0)">
                <path d="M302,388L302,438.2C297.9,443.3 291.7,446.4 283.9,446.4C271.2,446.4 265.4,436.2 265.8,422.8L265.8,388L252.4,388L252.4,422.8C251.9,443.6 260.2,459.1 280.4,459.1C289.6,459.1 295.9,456.4 301.1,449.8L302,449.8L302,456C302,469.4 292.7,474.7 282.2,474.7C272.5,474.7 265,471.1 260.4,468.3L255.9,479.7C260.3,482 268.5,486.9 282.2,486.9C301.6,486.9 315.8,475.4 315.8,453.2L315.8,388L302,388Z" style="fill:rgb(102,58,42);fill-rule:nonzero;"/>
            </g>
            <g transform="matrix(1,0,0,1,-23.4,0)">
                <path d="M392.8,388C392.8,388 370,420.1 369.3,421C368.6,421.9 368.4,422.9 368.4,422.9L367.9,422.9C367.9,422.9 367.6,422 366.9,421C366.2,420 341.7,388 341.7,388L328.7,388L328.7,457.3L342.5,457.3L342.5,413.1C342.5,410 341.9,408.3 341.9,408.3L342.5,408.3L367.9,442.4L368.5,442.4L392,408.3L392.7,408.3C392.7,408.3 392,410.1 392,413.1L392,457.3L405.8,457.3L405.8,388L392.8,388Z" style="fill:rgb(102,58,42);fill-rule:nonzero;"/>
            </g>
            <g transform="matrix(1,0,0,1,-23.4,0)">
                <path d="M531.7,304.9C531.7,304.9 512.3,330.1 511.5,331.1C510.6,332.3 510.5,332.9 510.5,332.9L509.5,332.9C509.5,332.9 509.3,332.2 508.4,331.1C507,329.4 486.9,304.9 486.9,304.9L468.6,304.9L468.6,374.2L491,374.2L491,345C491,341.9 490.5,340 490.5,340L491.5,340L509.5,360.7L510.5,360.7L527.2,340L528.2,340C528.2,340 527.7,341.9 527.7,345L527.7,374.1L550,374.1L550,304.8L531.7,304.8L531.7,304.9Z" style="fill:rgb(102,58,42);fill-rule:nonzero;"/>
            </g>
        </g>
        <g transform="matrix(0.740149,0,0,0.740149,164.738,90.8556)">
            <g transform="matrix(1,0,0,1,-23.4,0)">
                <path d="M675.9,167.3L675.9,97L620.5,97L620.5,167.3C620.5,192 633.7,214.9 655.2,227.3L717.5,263.3L717.5,199.3L682.9,179.3C678.5,176.8 675.9,172.3 675.9,167.3" style="fill:rgb(199,155,101);fill-rule:nonzero;"/>
            </g>
            <g transform="matrix(1,0,0,1,-23.4,0)">
                <path d="M717.4,235.6L779.8,199.6C801.2,187.2 814.5,164.3 814.5,139.6L814.5,0L717.5,0L717.5,55.4L759,55.4L759,139.5C759,144.4 756.4,149 752.1,151.5L717.5,171.5L717.5,235.6L717.4,235.6Z" style="fill:rgb(232,75,55);fill-rule:nonzero;"/>
            </g>
            <g transform="matrix(1,0,0,1,-23.4,0)">
                <path d="M717.4,0L620.5,97L717.4,97L717.4,0Z" style="fill:rgb(102,58,42);fill-rule:nonzero;"/>
            </g>
        </g>
        <g transform="matrix(0.746461,0,0,0.746461,49.9417,-64.1271)">
            <g transform="matrix(1,0,0,1,-23.4,0)">
                <path d="M202.1,565.1L202.4,560.7L202.2,560.7L200.1,565.6L190.2,582L187.5,582L187.5,552.7L191.7,552.7L191.7,570.1L191.3,574.4L191.6,574.4L193.5,569.6L203.6,552.7L206.3,552.7L206.3,582L202.1,582L202.1,565.1Z" style="fill:rgb(232,75,55);fill-rule:nonzero;"/>
            </g>
            <g transform="matrix(1,0,0,1,-23.4,0)">
                <path d="M247.5,564.6L247.9,559L247.6,559L245.9,564L240.4,575.3L238.9,575.3L233.2,564L231.6,559L231.3,559L231.8,564.5L231.8,582L228,582L228,552.7L232.2,552.7L238.6,565.4L239.9,569.2L240,569.2L241.4,565.3L247.4,552.7L251.7,552.7L251.7,582L247.5,582L247.5,564.6Z" style="fill:rgb(232,75,55);fill-rule:nonzero;"/>
            </g>
            <g transform="matrix(1,0,0,1,-23.4,0)">
                <path d="M267.1,571.7L268.3,577.4L268.6,577.4L269.5,571.7L274,552.7L278.3,552.7L271.3,579C270.7,581.1 270.2,583.1 269.7,584.9C269.1,586.7 268.6,588.3 267.9,589.7C267.3,591 266.5,592.1 265.7,592.9C264.9,593.7 264,594 262.9,594C261.8,594 260.8,593.8 260,593.5L260.7,589.5C261.2,589.7 261.8,589.7 262.3,589.6C262.8,589.5 263.4,589.1 263.9,588.6C264.4,588 264.8,587.3 265.2,586.2C265.6,585.1 266,583.7 266.3,582L256.8,552.7L261.6,552.7L267.1,571.7Z" style="fill:rgb(232,75,55);fill-rule:nonzero;"/>
            </g>
            <g transform="matrix(1,0,0,1,-23.4,0)">
                <path d="M297.4,568.9L287.2,568.9L287.2,582L283,582L283,552.7L287.2,552.7L287.2,565.1L297.4,565.1L297.4,552.7L301.6,552.7L301.6,582L297.4,582L297.4,568.9Z" style="fill:rgb(232,75,55);fill-rule:nonzero;"/>
            </g>
            <g transform="matrix(1,0,0,1,-23.4,0)">
                <path d="M324.2,565.1L324.6,560.7L324.3,560.7L322.3,565.6L312.4,582L309.6,582L309.6,552.7L313.9,552.7L313.9,570.1L313.5,574.4L313.7,574.4L315.7,569.6L325.7,552.7L328.5,552.7L328.5,582L324.2,582L324.2,565.1Z" style="fill:rgb(232,75,55);fill-rule:nonzero;"/>
            </g>
            <g transform="matrix(1,0,0,1,-23.4,0)">
                <path d="M358.1,589.5L355.1,589.5L354.4,582L336.6,582L336.6,552.7L340.8,552.7L340.8,578.2L350.5,578.2L350.5,552.7L354.7,552.7L354.7,578.2L358.1,578.2L358.1,589.5Z" style="fill:rgb(232,75,55);fill-rule:nonzero;"/>
            </g>
            <g transform="matrix(1,0,0,1,-23.4,0)">
                <path d="M378.3,565.1L378.6,560.7L378.4,560.7L376.3,565.6L366.4,582L363.7,582L363.7,552.7L367.9,552.7L367.9,570.1L367.5,574.4L367.8,574.4L369.7,569.6L379.7,552.7L382.5,552.7L382.5,582L378.3,582L378.3,565.1Z" style="fill:rgb(232,75,55);fill-rule:nonzero;"/>
            </g>
            <g transform="matrix(1,0,0,1,-23.4,0)">
                <path d="M404.6,556.5L394.8,556.5L394.8,582L390.6,582L390.6,552.7L408.9,552.7L408.9,582L404.6,582L404.6,556.5Z" style="fill:rgb(232,75,55);fill-rule:nonzero;"/>
            </g>
            <g transform="matrix(1,0,0,1,-23.4,0)">
                <path d="M429.3,568.6C428.9,568.6 428.5,568.5 428.1,568.5L426.9,568.5C426,568.5 425.1,568.6 424.2,568.7C423.3,568.9 422.5,569.1 421.8,569.5C421.1,569.9 420.5,570.4 420.2,571.1C419.8,571.8 419.6,572.6 419.6,573.6C419.6,575.2 420,576.4 420.8,577.2C421.5,578.1 422.5,578.5 423.7,578.5C425.3,578.5 426.6,578.1 427.5,577.3C428.4,576.5 429,575.7 429.4,574.7L429.3,568.6ZM416.7,554.5C417.8,553.8 419.2,553.3 420.9,552.9C422.5,552.5 424.2,552.3 426,552.3C427.6,552.3 429,552.5 430,553C431,553.5 431.8,554.1 432.4,555C433,555.8 433.3,556.8 433.5,557.9C433.7,559 433.8,560.1 433.8,561.3C433.8,563.6 433.8,565.9 433.7,568.2C433.6,570.4 433.5,572.6 433.5,574.5C433.5,576 433.6,577.4 433.7,578.6C433.8,579.9 434,581.1 434.2,582.2L430.9,582.2L429.9,578.7L429.7,578.7C429.1,579.7 428.3,580.6 427.1,581.3C426,582.1 424.5,582.4 422.6,582.4C420.5,582.4 418.8,581.7 417.4,580.2C416.1,578.7 415.4,576.7 415.4,574.1C415.4,572.4 415.7,571 416.2,569.9C416.8,568.8 417.6,567.8 418.6,567.1C419.6,566.4 420.9,565.9 422.3,565.6C423.7,565.3 425.3,565.1 427,565.1L428.2,565.1C428.6,565.1 429,565.1 429.4,565.2C429.5,564 429.6,562.9 429.6,562C429.6,559.8 429.3,558.2 428.6,557.3C427.9,556.4 426.7,556 425,556C423.9,556 422.7,556.2 421.4,556.5C420.1,556.8 419,557.2 418.2,557.8L416.7,554.5Z" style="fill:rgb(232,75,55);fill-rule:nonzero;"/>
            </g>
            <g transform="matrix(1,0,0,1,-23.4,0)">
                <path d="M454.3,556.5L447.9,556.5C447.8,559.8 447.6,563 447.4,566.2C447.2,569.3 446.9,572.1 446.4,574.4C445.9,576.8 445.2,578.7 444.3,580.1C443.4,581.5 442.2,582.2 440.7,582.2C440,582.2 439.5,582.2 439,582.1C438.5,582 438.1,581.9 437.7,581.7L438.4,578.1C439.2,578.3 439.9,578.3 440.6,577.9C441.2,577.6 441.8,576.6 442.3,574.9C442.8,573.2 443.1,570.6 443.4,567.1C443.7,563.6 443.9,558.8 444,552.7L458.5,552.7L458.5,582L454.3,582L454.3,556.5Z" style="fill:rgb(232,75,55);fill-rule:nonzero;"/>
            </g>
            <g transform="matrix(1,0,0,1,-23.4,0)">
                <path d="M470.9,578.2C472.1,578.4 473.1,578.6 474.1,578.6C477.8,578.6 479.6,576.7 479.6,572.8C479.6,571 479.2,569.7 478.3,568.7C477.4,567.7 476.1,567.2 474.2,567.2C473.7,567.2 473.2,567.2 472.6,567.3C472,567.4 471.4,567.5 470.9,567.6L470.9,578.2ZM470.9,563.9C471.7,563.8 472.4,563.7 473.1,563.6C473.8,563.5 474.5,563.5 475.1,563.5C476.7,563.5 478.1,563.7 479.3,564.2C480.4,564.7 481.4,565.3 482.1,566.1C482.8,566.9 483.3,567.8 483.6,568.9C483.9,570 484,571.1 484,572.3C484,575.8 483.2,578.4 481.4,580C479.7,581.6 477,582.4 473.3,582.4C471,582.4 468.8,582.3 466.6,582L466.6,552.7L470.8,552.7L470.9,563.9Z" style="fill:rgb(232,75,55);fill-rule:nonzero;"/>
            </g>
            <g transform="matrix(1,0,0,1,-23.4,0)">
                <path d="M504.3,568.9L494.1,568.9L494.1,582L489.9,582L489.9,552.7L494.1,552.7L494.1,565.1L504.3,565.1L504.3,552.7L508.5,552.7L508.5,582L504.3,582L504.3,568.9Z" style="fill:rgb(232,75,55);fill-rule:nonzero;"/>
            </g>
            <g transform="matrix(1,0,0,1,-23.4,0)">
                <path d="M537,552.7L541.2,552.7L541.2,582L537,582L537,552.7ZM520.8,578.2C522,578.4 523.1,578.6 524,578.6C525.9,578.6 527.2,578.1 527.9,577.1C528.6,576.1 529,574.7 529,572.8C529,571 528.6,569.7 527.9,568.7C527.2,567.7 525.9,567.2 524.1,567.2C523.6,567.2 523,567.2 522.5,567.3C521.9,567.4 521.3,567.5 520.8,567.6L520.8,578.2ZM520.8,563.9C521.6,563.8 522.3,563.7 523,563.6C523.7,563.5 524.4,563.5 525,563.5C526.6,563.5 528,563.7 529.1,564.2C530.2,564.7 531.1,565.3 531.7,566.1C532.4,566.9 532.8,567.8 533.1,568.9C533.4,570 533.5,571.1 533.5,572.3C533.5,575.8 532.7,578.4 531.1,580C529.5,581.6 526.9,582.4 523.2,582.4C520.9,582.4 518.7,582.3 516.6,582L516.6,552.7L520.8,552.7L520.8,563.9Z" style="fill:rgb(232,75,55);fill-rule:nonzero;"/>
            </g>
            <g transform="matrix(1,0,0,1,-23.4,0)">
                <path d="M563.5,564.3C563.6,561.4 563.2,559.2 562.3,557.8C561.4,556.4 560.2,555.8 558.6,555.8C556.8,555.8 555.4,556.5 554.3,557.8C553.2,559.2 552.6,561.3 552.4,564.3L563.5,564.3ZM566.8,580C565.9,580.9 564.7,581.5 563.2,582C561.8,582.5 560.2,582.7 558.6,582.7C556.8,582.7 555.2,582.3 553.8,581.6C552.5,580.9 551.3,579.8 550.4,578.5C549.5,577.1 548.9,575.5 548.5,573.7C548.1,571.8 547.9,569.7 547.9,567.4C547.9,562.4 548.8,558.6 550.7,556C552.5,553.4 555.1,552.1 558.5,552.1C559.6,552.1 560.7,552.2 561.8,552.5C562.9,552.8 563.8,553.3 564.7,554.2C565.6,555 566.2,556.2 566.8,557.7C567.3,559.2 567.6,561.1 567.6,563.5C567.6,564.2 567.6,564.9 567.5,565.7C567.4,566.4 567.4,567.3 567.3,568.1L552.4,568.1C552.4,569.8 552.5,571.3 552.8,572.7C553.1,574.1 553.5,575.2 554.1,576.2C554.7,577.2 555.4,577.9 556.4,578.4C557.3,578.9 558.5,579.2 559.8,579.2C560.8,579.2 561.9,579 562.9,578.6C563.9,578.2 564.7,577.7 565.3,577.2L566.8,580Z" style="fill:rgb(232,75,55);fill-rule:nonzero;"/>
            </g>
            <g transform="matrix(1,0,0,1,-23.4,0)">
                <path d="M595.2,571.7L596.4,577.4L596.7,577.4L597.6,571.7L602.1,552.7L606.4,552.7L599.4,579C598.8,581.1 598.3,583.1 597.8,584.9C597.3,586.7 596.7,588.3 596,589.7C595.3,591 594.6,592.1 593.8,592.9C593,593.7 592.1,594 591,594C589.9,594 588.9,593.8 588.1,593.5L588.8,589.5C589.3,589.7 589.9,589.7 590.4,589.6C590.9,589.5 591.5,589.1 592,588.6C592.5,588 592.9,587.3 593.4,586.2C593.8,585.1 594.2,583.7 594.5,582L585,552.7L589.8,552.7L595.2,571.7Z" style="fill:rgb(232,75,55);fill-rule:nonzero;"/>
            </g>
            <g transform="matrix(1,0,0,1,-23.4,0)">
                <path d="M627.1,580.5C626.1,581.2 625,581.8 623.8,582.1C622.6,582.5 621.2,582.6 619.9,582.6C618,582.6 616.4,582.2 615.1,581.5C613.8,580.8 612.8,579.7 612,578.4C611.2,577 610.6,575.4 610.2,573.6C609.8,571.7 609.6,569.6 609.6,567.3C609.6,562.3 610.5,558.5 612.3,555.9C614.1,553.3 616.6,552 619.9,552C621.4,552 622.7,552.1 623.8,552.4C624.9,552.7 625.8,553.1 626.6,553.5L625.4,557.2C623.8,556.3 622.1,555.9 620.3,555.9C618.2,555.9 616.6,556.8 615.5,558.7C614.4,560.6 613.9,563.5 613.9,567.5C613.9,569.1 614,570.6 614.2,572C614.4,573.4 614.8,574.6 615.4,575.7C615.9,576.7 616.6,577.6 617.5,578.2C618.4,578.8 619.4,579.1 620.7,579.1C621.7,579.1 622.7,578.9 623.5,578.6C624.4,578.2 625.1,577.8 625.6,577.4L627.1,580.5Z" style="fill:rgb(232,75,55);fill-rule:nonzero;"/>
            </g>
            <g transform="matrix(1,0,0,1,-23.4,0)">
                <path d="M644.5,556.5L638.1,556.5C638,559.8 637.8,563 637.6,566.2C637.4,569.3 637.1,572.1 636.6,574.4C636.1,576.8 635.4,578.7 634.5,580.1C633.6,581.5 632.4,582.2 630.9,582.2C630.2,582.2 629.7,582.2 629.2,582.1C628.7,582 628.3,581.9 627.9,581.7L628.5,578.1C629.3,578.3 630,578.3 630.7,577.9C631.3,577.6 631.9,576.6 632.4,574.9C632.9,573.2 633.2,570.6 633.5,567.1C633.8,563.6 634,558.8 634.1,552.7L648.6,552.7L648.6,582L644.4,582L644.4,556.5L644.5,556.5Z" style="fill:rgb(232,75,55);fill-rule:nonzero;"/>
            </g>
            <g transform="matrix(1,0,0,1,-23.4,0)">
                <path d="M664,571.7L665.2,577.4L665.5,577.4L666.4,571.7L670.8,552.7L675.1,552.7L668.1,579C667.6,581.1 667,583.1 666.5,584.9C666,586.7 665.3,588.3 664.7,589.7C664.1,591 663.3,592.1 662.6,592.9C661.8,593.7 660.8,594 659.7,594C658.6,594 657.7,593.8 656.8,593.5L657.5,589.5C658.1,589.7 658.6,589.7 659.1,589.6C659.6,589.5 660.2,589.1 660.7,588.6C661.2,588 661.7,587.3 662,586.2C662.4,585.1 662.8,583.7 663.1,582L653.6,552.7L658.4,552.7L664,571.7Z" style="fill:rgb(232,75,55);fill-rule:nonzero;"/>
            </g>
            <g transform="matrix(1,0,0,1,-23.4,0)">
                <path d="M694,556.5L684.2,556.5L684.2,582L680,582L680,552.7L694,552.7L694,556.5Z" style="fill:rgb(232,75,55);fill-rule:nonzero;"/>
            </g>
            <g transform="matrix(1,0,0,1,-23.4,0)">
                <path d="M713.1,565.1L713.5,560.7L713.2,560.7L711.2,565.6L701.3,582L698.5,582L698.5,552.7L702.7,552.7L702.7,570.1L702.4,574.4L702.6,574.4L704.6,569.6L714.6,552.7L717.3,552.7L717.3,582L713.1,582L713.1,565.1Z" style="fill:rgb(232,75,55);fill-rule:nonzero;"/>
            </g>
            <g transform="matrix(1,0,0,1,-23.4,0)">
                <path d="M370,501.1L360.3,501.1L360.3,526.6L356.1,526.6L356.1,497.3L370,497.3L370,501.1Z" style="fill:rgb(232,75,55);fill-rule:nonzero;"/>
            </g>
            <g transform="matrix(1,0,0,1,-23.4,0)">
                <path d="M377,511.9C377,513.6 377.1,515.2 377.3,516.6C377.5,518 377.9,519.2 378.4,520.3C378.9,521.3 379.5,522.1 380.3,522.7C381.1,523.3 382,523.5 383.1,523.5C385.1,523.5 386.7,522.6 387.7,520.8C388.7,519 389.2,516 389.2,512C389.2,510.3 389.1,508.8 388.9,507.3C388.7,505.9 388.3,504.7 387.8,503.6C387.3,502.6 386.7,501.8 385.9,501.2C385.1,500.6 384.2,500.4 383.1,500.4C381.1,500.4 379.6,501.3 378.6,503.2C377.5,505 377,507.9 377,511.9M372.6,511.9C372.6,506.6 373.5,502.7 375.3,500.3C377.1,497.8 379.7,496.6 383.1,496.6C386.7,496.6 389.4,497.9 391.1,500.4C392.8,503 393.7,506.8 393.7,512C393.7,517.3 392.8,521.2 391,523.7C389.1,526.2 386.6,527.4 383.2,527.4C379.6,527.4 377,526.1 375.3,523.6C373.5,520.9 372.6,517.1 372.6,511.9" style="fill:rgb(232,75,55);fill-rule:nonzero;"/>
            </g>
            <g transform="matrix(1,0,0,1,-23.4,0)">
                <path d="M416.6,525.1C415.6,525.9 414.5,526.4 413.3,526.8C412.1,527.1 410.7,527.3 409.4,527.3C407.5,527.3 406,526.9 404.7,526.2C403.4,525.5 402.4,524.4 401.6,523.1C400.8,521.8 400.2,520.1 399.8,518.2C399.4,516.3 399.3,514.2 399.3,511.9C399.3,506.9 400.2,503.1 402,500.5C403.8,497.9 406.3,496.6 409.6,496.6C411.1,496.6 412.4,496.7 413.5,497C414.6,497.3 415.5,497.6 416.3,498.1L415.1,501.8C413.5,500.9 411.8,500.5 410,500.5C407.9,500.5 406.3,501.4 405.2,503.3C404.1,505.2 403.6,508.1 403.6,512.1C403.6,513.7 403.7,515.2 404,516.6C404.2,518 404.6,519.2 405.2,520.3C405.8,521.3 406.5,522.2 407.3,522.8C408.2,523.4 409.2,523.7 410.5,523.7C411.5,523.7 412.5,523.5 413.3,523.2C414.2,522.8 414.9,522.4 415.4,522L416.6,525.1Z" style="fill:rgb(232,75,55);fill-rule:nonzero;"/>
            </g>
            <g transform="matrix(1,0,0,1,-23.4,0)">
                <path d="M429.1,516.2L430.3,521.9L430.6,521.9L431.5,516.2L436,497.2L440.3,497.2L433.3,523.5C432.8,525.6 432.2,527.6 431.7,529.4C431.1,531.2 430.6,532.8 429.9,534.2C429.3,535.5 428.5,536.6 427.7,537.4C426.9,538.2 426,538.5 424.9,538.5C423.8,538.5 422.9,538.3 422,538L422.7,534C423.2,534.2 423.8,534.2 424.3,534.1C424.9,534 425.4,533.6 425.8,533.1C426.3,532.5 426.7,531.7 427.2,530.6C427.6,529.5 428,528.1 428.3,526.4L418.8,497.1L423.6,497.1L429.1,516.2Z" style="fill:rgb(232,75,55);fill-rule:nonzero;"/>
            </g>
            <g transform="matrix(1,0,0,1,-23.4,0)">
                <path d="M457.9,522.8L457.9,501.1L451.3,501.1C451.2,502.8 451.1,504.6 451,506.6C450.9,508.6 450.7,510.6 450.4,512.6C450.1,514.6 449.8,516.5 449.4,518.3C449,520.1 448.6,521.6 448.1,522.9L457.9,522.8ZM465.6,534L462.7,534L462,526.5L444.7,526.5L443.9,534L441,534L441,522.7L443.8,522.7C444.1,522.3 444.4,521.5 444.8,520.3C445.2,519.2 445.6,517.5 446,515.5C446.4,513.4 446.7,510.9 447,507.9C447.3,504.9 447.5,501.3 447.5,497.1L462.2,497.1L462.2,522.6L465.7,522.6L465.6,534Z" style="fill:rgb(232,75,55);fill-rule:nonzero;"/>
            </g>
            <g transform="matrix(1,0,0,1,-23.4,0)">
                <path d="M483.5,513.2C483.1,513.1 482.7,513.1 482.3,513.1L481.1,513.1C480.2,513.1 479.3,513.2 478.4,513.3C477.5,513.5 476.7,513.7 476,514.1C475.3,514.5 474.8,515 474.4,515.7C474,516.3 473.8,517.2 473.8,518.2C473.8,519.8 474.2,521 474.9,521.8C475.6,522.7 476.6,523.1 477.8,523.1C479.4,523.1 480.7,522.7 481.6,521.9C482.5,521.1 483.1,520.3 483.5,519.3L483.5,513.2ZM470.9,499C472,498.3 473.4,497.8 475,497.4C476.6,497 478.3,496.8 480.1,496.8C481.7,496.8 483.1,497 484.1,497.5C485.1,498 485.9,498.7 486.4,499.5C487,500.3 487.3,501.3 487.5,502.4C487.7,503.5 487.8,504.6 487.8,505.8C487.8,508.1 487.8,510.4 487.6,512.7C487.5,514.9 487.4,517 487.4,519C487.4,520.5 487.5,521.9 487.6,523.1C487.7,524.4 487.9,525.6 488.2,526.7L484.9,526.7L483.9,523.2L483.7,523.2C483.1,524.2 482.3,525.1 481.1,525.8C480,526.6 478.5,526.9 476.6,526.9C474.5,526.9 472.8,526.2 471.4,524.7C470.1,523.2 469.4,521.2 469.4,518.6C469.4,516.9 469.7,515.5 470.2,514.4C470.8,513.3 471.6,512.3 472.6,511.6C473.6,510.9 474.9,510.4 476.3,510.1C477.7,509.8 479.3,509.7 481,509.7L482.2,509.7C482.6,509.7 483,509.7 483.4,509.8C483.5,508.6 483.6,507.5 483.6,506.6C483.6,504.4 483.3,502.8 482.6,501.9C481.9,501 480.7,500.6 479,500.6C477.9,500.6 476.7,500.8 475.5,501.1C474.2,501.4 473.1,501.8 472.3,502.3L470.9,499Z" style="fill:rgb(232,75,55);fill-rule:nonzero;"/>
            </g>
            <g transform="matrix(1,0,0,1,-23.4,0)">
                <path d="M500,522C500.5,522.5 501.2,522.8 501.8,523.1C502.5,523.4 503.4,523.5 504.5,523.5C506.6,523.5 508.2,522.4 509.4,520.3C510.6,518.2 511.2,515.2 511.2,511.3C511.2,509.7 511.1,508.2 510.9,506.8C510.7,505.5 510.3,504.3 509.9,503.4C509.4,502.4 508.9,501.7 508.1,501.2C507.4,500.7 506.5,500.4 505.4,500.4C502.5,500.4 500.7,502.1 499.9,505.6L499.9,522L500,522ZM495.8,497.3L498.8,497.3L499.5,500.5L499.7,500.5C501.1,497.9 503.4,496.6 506.5,496.6C509.6,496.6 511.9,497.8 513.5,500.1C515,502.4 515.8,506.2 515.8,511.4C515.8,513.8 515.6,516.1 515,518C514.5,520 513.8,521.6 512.8,523C511.9,524.4 510.7,525.5 509.4,526.2C508.1,526.9 506.5,527.3 504.9,527.3C503.8,527.3 502.9,527.2 502.2,527.1C501.5,527 500.8,526.7 500,526.3L500,538.4L495.8,538.4L495.8,497.3Z" style="fill:rgb(232,75,55);fill-rule:nonzero;"/>
            </g>
            <g transform="matrix(1,0,0,1,-23.4,0)">
                <path d="M538.7,525.1C537.7,525.9 536.6,526.4 535.4,526.8C534.1,527.1 532.8,527.3 531.5,527.3C529.6,527.3 528,526.9 526.7,526.2C525.4,525.5 524.4,524.4 523.6,523.1C522.8,521.8 522.2,520.1 521.8,518.2C521.4,516.3 521.2,514.2 521.2,511.9C521.2,506.9 522.1,503.1 523.9,500.5C525.7,497.9 528.2,496.6 531.6,496.6C533.1,496.6 534.4,496.7 535.5,497C536.6,497.3 537.5,497.6 538.3,498.1L537.1,501.8C535.5,500.9 533.8,500.5 532,500.5C529.9,500.5 528.3,501.4 527.2,503.3C526.1,505.2 525.6,508.1 525.6,512.1C525.6,513.7 525.7,515.2 526,516.6C526.2,518 526.6,519.2 527.2,520.3C527.7,521.3 528.5,522.2 529.3,522.8C530.2,523.4 531.2,523.7 532.5,523.7C533.5,523.7 534.5,523.5 535.3,523.2C536.2,522.8 536.9,522.4 537.4,522L538.7,525.1Z" style="fill:rgb(232,75,55);fill-rule:nonzero;"/>
            </g>
            <g transform="matrix(1,0,0,1,-23.4,0)">
                <path d="M559.2,501.1L552,501.1L552,526.6L547.7,526.6L547.7,501.1L540.5,501.1L540.5,497.3L559.2,497.3L559.2,501.1Z" style="fill:rgb(232,75,55);fill-rule:nonzero;"/>
            </g>
            <g transform="matrix(1,0,0,1,-23.4,0)">
                <path d="M568.1,523C568.7,523.1 569.2,523.1 569.8,523.2C570.3,523.3 571,523.3 571.8,523.3C573.8,523.3 575.2,522.9 576.2,522.1C577.1,521.3 577.6,520 577.6,518.1C577.6,516.7 577.2,515.5 576.4,514.6C575.6,513.7 574.2,513.2 572.1,513.2L568.2,513.2L568.2,523L568.1,523ZM572.4,509.8C572.9,509.8 573.5,509.7 574,509.4C574.5,509.2 575,508.8 575.4,508.4C575.8,508 576.1,507.5 576.4,506.9C576.6,506.3 576.7,505.7 576.7,505.1C576.7,503.6 576.3,502.5 575.6,501.7C574.9,501 573.6,500.7 571.9,500.7C571,500.7 570.2,500.7 569.7,500.8C569.1,500.9 568.6,500.9 568.1,500.9L568.1,509.8L572.4,509.8ZM563.9,497.3C565,497.2 566.2,497.1 567.5,497C568.8,496.9 570.3,496.8 572.1,496.8C575.3,496.8 577.5,497.4 578.9,498.6C580.3,499.8 581,501.6 581,504C581,505.4 580.7,506.7 580,508C579.3,509.3 578.3,510.3 576.7,510.9L576.7,511.1C578.6,511.5 579.9,512.3 580.7,513.5C581.5,514.7 581.9,516.2 581.9,518.2C581.9,521.2 581,523.4 579.2,524.8C577.4,526.2 574.7,526.8 571.2,526.8C569.9,526.8 568.6,526.8 567.4,526.7C566.2,526.6 565,526.5 563.9,526.4L563.9,497.3Z" style="fill:rgb(232,75,55);fill-rule:nonzero;"/>
            </g>
            <g transform="matrix(1,0,0,1,-23.4,0)">
                <path d="M602.9,508.9C603,506 602.6,503.8 601.7,502.4C600.8,501 599.6,500.4 598,500.4C596.2,500.4 594.8,501.1 593.7,502.4C592.7,503.8 592,505.9 591.8,508.9L602.9,508.9ZM606.2,524.6C605.3,525.4 604.1,526.1 602.6,526.6C601.1,527.1 599.6,527.3 598,527.3C596.2,527.3 594.6,526.9 593.2,526.2C591.8,525.5 590.7,524.4 589.9,523.1C589,521.8 588.4,520.1 588,518.3C587.6,516.4 587.4,514.3 587.4,512C587.4,507 588.3,503.2 590.2,500.6C592,498 594.6,496.7 598,496.7C599.1,496.7 600.2,496.8 601.2,497.1C602.3,497.4 603.2,497.9 604.1,498.7C605,499.5 605.7,500.7 606.2,502.2C606.7,503.7 607,505.6 607,508C607,508.7 607,509.4 606.9,510.2C606.9,511 606.8,511.8 606.7,512.6L591.8,512.6C591.8,514.3 591.9,515.8 592.2,517.2C592.5,518.6 592.9,519.7 593.5,520.7C594.1,521.7 594.8,522.4 595.8,522.9C596.7,523.4 597.9,523.7 599.2,523.7C600.3,523.7 601.3,523.5 602.3,523.1C603.3,522.7 604.1,522.2 604.7,521.7L606.2,524.6Z" style="fill:rgb(232,75,55);fill-rule:nonzero;"/>
            </g>
            <g transform="matrix(1,0,0,1,-23.4,0)">
                <path d="M628.4,513.5L618.3,513.5L618.3,526.6L614.1,526.6L614.1,497.3L618.3,497.3L618.3,509.7L628.4,509.7L628.4,497.3L632.7,497.3L632.7,526.6L628.4,526.6L628.4,513.5Z" style="fill:rgb(232,75,55);fill-rule:nonzero;"/>
            </g>
            <g transform="matrix(1,0,0,1,-23.4,0)">
                <path d="M655.1,513.5L644.9,513.5L644.9,526.6L640.7,526.6L640.7,497.3L644.9,497.3L644.9,509.7L655.1,509.7L655.1,497.3L659.3,497.3L659.3,526.6L655.1,526.6L655.1,513.5Z" style="fill:rgb(232,75,55);fill-rule:nonzero;"/>
            </g>
            <g transform="matrix(1,0,0,1,-23.4,0)">
                <path d="M687.7,497.3L691.9,497.3L691.9,526.6L687.7,526.6L687.7,497.3ZM671.5,522.8C672.7,523 673.7,523.1 674.7,523.1C676.6,523.1 677.9,522.6 678.6,521.6C679.4,520.6 679.7,519.2 679.7,517.3C679.7,515.5 679.3,514.2 678.6,513.2C677.9,512.2 676.6,511.7 674.8,511.7C674.3,511.7 673.7,511.7 673.2,511.8C672.6,511.9 672,512 671.5,512.1L671.5,522.8ZM671.5,508.5C672.3,508.3 673,508.2 673.7,508.2C674.4,508.1 675.1,508.1 675.7,508.1C677.3,508.1 678.7,508.3 679.8,508.8C680.9,509.3 681.8,509.9 682.4,510.6C683,511.4 683.5,512.3 683.8,513.4C684.1,514.5 684.2,515.6 684.2,516.8C684.2,520.4 683.4,522.9 681.8,524.6C680.2,526.2 677.6,527 673.9,527C671.6,527 669.4,526.9 667.3,526.6L667.3,497.3L671.5,497.3L671.5,508.5Z" style="fill:rgb(232,75,55);fill-rule:nonzero;"/>
            </g>
            <g transform="matrix(1,0,0,1,-23.4,0)">
                <path d="M714.3,508.9C714.4,506 714,503.8 713.1,502.4C712.2,501 711,500.4 709.4,500.4C707.6,500.4 706.2,501.1 705.1,502.4C704,503.8 703.4,505.9 703.2,508.9L714.3,508.9ZM717.6,524.6C716.7,525.4 715.5,526.1 714,526.6C712.5,527.1 711,527.3 709.4,527.3C707.6,527.3 706,526.9 704.6,526.2C703.3,525.5 702.1,524.4 701.3,523.1C700.4,521.8 699.8,520.1 699.4,518.3C699,516.4 698.8,514.3 698.8,512C698.8,507 699.7,503.2 701.6,500.6C703.4,498 706,496.7 709.4,496.7C710.5,496.7 711.6,496.8 712.7,497.1C713.8,497.4 714.7,497.9 715.6,498.7C716.5,499.5 717.1,500.7 717.7,502.2C718.2,503.7 718.5,505.6 718.5,508C718.5,508.7 718.5,509.4 718.4,510.2C718.3,511 718.3,511.8 718.2,512.6L703.3,512.6C703.3,514.3 703.5,515.8 703.7,517.2C704,518.6 704.4,519.7 705,520.7C705.6,521.7 706.3,522.4 707.3,522.9C708.2,523.4 709.4,523.7 710.7,523.7C711.7,523.7 712.8,523.5 713.8,523.1C714.8,522.7 715.6,522.2 716.2,521.7L717.6,524.6Z" style="fill:rgb(232,75,55);fill-rule:nonzero;"/>
            </g>
        </g>
    </g>
</svg>
