<?xml version="1.0" encoding="UTF-8" standalone="no"?>
<!DOCTYPE svg PUBLIC "-//W3C//DTD SVG 1.1//EN" "http://www.w3.org/Graphics/SVG/1.1/DTD/svg11.dtd">
<svg width="100%" height="100%" viewBox="0 0 193 60" version="1.1" xmlns="http://www.w3.org/2000/svg" xmlns:xlink="http://www.w3.org/1999/xlink" xml:space="preserve" xmlns:serif="http://www.serif.com/" style="fill-rule:evenodd;clip-rule:evenodd;stroke-linejoin:round;stroke-miterlimit:2;">
    <g transform="matrix(1.20493,0,0,1.20493,-14.4134,-24.783)">
        <g transform="matrix(0.550301,0,0,0.550301,8.93644,18.4535)">
            <path d="M8.504,31.203L15.981,31.203L15.981,56.558L8.504,49.96L8.504,31.203Z" style="fill:rgb(36,28,36);"/>
            <path d="M17.448,22.851L24.628,22.851L24.628,64.766L17.448,57.869L17.448,22.851Z" style="fill:rgb(36,28,36);"/>
            <rect x="26.096" y="14.499" width="7.328" height="39.712" style="fill:rgb(36,28,36);"/>
            <rect x="34.884" y="6.146" width="7.621" height="39.859" style="fill:rgb(36,28,36);"/>
            <rect x="43.531" y="14.055" width="7.33" height="40.156" style="fill:rgb(36,28,36);"/>
            <path d="M52.62,22.697L59.8,22.697L59.8,57.724L52.62,64.766L52.62,22.697Z" style="fill:rgb(36,28,36);"/>
            <path d="M61.115,31.055L68.449,31.055L68.449,49.376L61.115,56.558L61.115,31.055Z" style="fill:rgb(36,28,36);"/>
            <rect x="26.096" y="55.097" width="7.328" height="36.771" style="fill:rgb(179,179,28);"/>
            <rect x="34.884" y="47.183" width="7.178" height="44.685" style="fill:rgb(179,179,28);"/>
            <rect x="43.531" y="55.237" width="7.33" height="36.631" style="fill:rgb(179,179,28);"/>
        </g>
        <g transform="matrix(1.26257,0,0,1.21455,-29.6787,26.2693)">
            <path d="M59.535,35.188L57.136,35.188L57.136,26.188L61.659,26.188C62.224,26.188 62.701,26.25 63.091,26.375C63.48,26.5 63.795,26.693 64.034,26.953C64.273,27.212 64.449,27.552 64.561,27.971C64.674,28.39 64.73,28.895 64.73,29.487C64.73,30.147 64.685,30.69 64.595,31.117C64.505,31.544 64.35,31.886 64.131,32.144C63.911,32.402 63.602,32.59 63.203,32.708C62.805,32.826 62.29,32.885 61.659,32.885L59.535,32.885L59.535,35.188ZM59.535,30.796L61.177,30.796C61.503,30.796 61.738,30.767 61.881,30.708C62.024,30.65 62.123,30.532 62.177,30.355C62.23,30.179 62.257,29.889 62.257,29.487C62.257,29.163 62.231,28.916 62.178,28.747C62.125,28.578 62.023,28.457 61.871,28.385C61.719,28.313 61.487,28.277 61.177,28.277L59.535,28.277L59.535,30.796Z" style="fill-rule:nonzero;"/>
            <g transform="matrix(1,0,0,1,-0.119732,0)">
                <path d="M73.671,26.188L73.671,35.188L71.272,35.188L71.272,31.661L68.137,31.661L68.137,35.188L65.738,35.188L65.738,26.188L68.137,26.188L68.137,29.572L71.272,29.572L71.272,26.188L73.671,26.188Z" style="fill-rule:nonzero;"/>
            </g>
            <rect x="75.028" y="31.18" width="6" height="1.38"/>
            <g transform="matrix(1,0,0,1,-0.166294,0)">
                <path d="M86.345,28.277L86.345,35.188L83.946,35.188L83.946,28.277L81.64,28.277L81.64,26.188L88.768,26.188L88.768,28.277L86.345,28.277Z" style="fill-rule:nonzero;"/>
            </g>
            <g transform="matrix(1,0,0,1,-0.0207875,0)">
                <path d="M91.865,35.188L89.465,35.188L89.465,26.188L93.989,26.188C94.553,26.188 95.03,26.25 95.42,26.375C95.809,26.5 96.124,26.693 96.363,26.953C96.602,27.212 96.778,27.552 96.89,27.971C97.003,28.39 97.059,28.895 97.059,29.487C97.059,30.147 97.014,30.69 96.924,31.117C96.834,31.544 96.68,31.886 96.46,32.144C96.24,32.402 95.931,32.59 95.533,32.708C95.134,32.826 94.619,32.885 93.989,32.885L91.865,32.885L91.865,35.188ZM91.865,30.796L93.506,30.796C93.832,30.796 94.067,30.767 94.21,30.708C94.354,30.65 94.452,30.532 94.506,30.355C94.559,30.179 94.586,29.889 94.586,29.487C94.586,29.163 94.56,28.916 94.507,28.747C94.455,28.578 94.352,28.457 94.2,28.385C94.048,28.313 93.817,28.277 93.506,28.277L91.865,28.277L91.865,30.796Z" style="fill-rule:nonzero;"/>
            </g>
            <g transform="matrix(1,0,0,1,0.149665,0)">
                <path d="M103.323,33.641L100.094,33.641L99.652,35.188L97.156,35.188L99.854,26.188L103.504,26.188L106.241,35.188L103.791,35.188L103.323,33.641ZM102.842,31.889L101.726,27.987L101.702,27.987L100.61,31.889L102.842,31.889Z" style="fill-rule:nonzero;"/>
            </g>
            <g transform="matrix(1,0,0,1,0.116405,0)">
                <path d="M114.795,26.188L114.795,35.188L112.396,35.188L112.396,31.661L109.261,31.661L109.261,35.188L106.862,35.188L106.862,26.188L109.261,26.188L109.261,29.572L112.396,29.572L112.396,26.188L114.795,26.188Z" style="fill-rule:nonzero;"/>
            </g>
            <path d="M121.419,31.781L123.892,31.781L123.892,32.044C123.892,32.369 123.886,32.634 123.873,32.84C123.86,33.046 123.828,33.255 123.776,33.467C123.724,33.679 123.643,33.878 123.532,34.064C123.42,34.251 123.264,34.429 123.063,34.599C122.811,34.804 122.535,34.955 122.235,35.052C121.935,35.148 121.637,35.207 121.34,35.229C121.043,35.25 120.665,35.261 120.206,35.261C119.468,35.261 118.865,35.233 118.396,35.176C117.927,35.12 117.507,34.982 117.135,34.765C116.763,34.547 116.475,34.205 116.273,33.739C116.071,33.273 115.97,32.644 115.97,31.851L115.97,29.525C115.97,28.572 116.133,27.848 116.458,27.352C116.783,26.857 117.244,26.527 117.842,26.362C118.44,26.197 119.228,26.115 120.206,26.115C121.042,26.115 121.727,26.204 122.26,26.381C122.793,26.559 123.197,26.863 123.47,27.294C123.743,27.725 123.88,28.316 123.88,29.068L123.88,29.416L121.408,29.416L121.408,29.068C121.38,28.812 121.305,28.622 121.183,28.498C121.061,28.374 120.905,28.294 120.713,28.258C120.522,28.222 120.265,28.204 119.943,28.204C119.49,28.204 119.158,28.255 118.948,28.359C118.738,28.462 118.601,28.629 118.538,28.858C118.474,29.088 118.443,29.438 118.443,29.909L118.443,31.312C118.443,31.708 118.456,32.013 118.482,32.225C118.509,32.436 118.57,32.615 118.665,32.759C118.761,32.904 118.909,33.009 119.108,33.074C119.307,33.14 119.585,33.172 119.943,33.172C120.32,33.172 120.609,33.149 120.81,33.103C121.011,33.058 121.163,32.955 121.265,32.794C121.368,32.634 121.419,32.384 121.419,32.044L121.419,31.781Z" style="fill-rule:nonzero;"/>
            <g transform="matrix(1,0,0,1,-0.212856,0)">
                <path d="M132.989,26.188L132.989,35.188L130.589,35.188L130.589,28.277L127.454,28.277L127.454,35.188L125.055,35.188L125.055,26.188L132.989,26.188Z" style="fill-rule:nonzero;"/>
            </g>
            <g transform="matrix(1,0,0,1,-0.282702,0)">
                <path d="M138.303,35.261C137.637,35.261 137.058,35.215 136.566,35.123C136.074,35.032 135.646,34.867 135.283,34.63C134.919,34.393 134.638,34.056 134.439,33.619C134.24,33.183 134.14,32.629 134.14,31.959L134.14,29.416C134.14,28.747 134.24,28.192 134.44,27.754C134.64,27.315 134.922,26.978 135.284,26.743C135.646,26.508 136.074,26.344 136.566,26.252C137.058,26.161 137.637,26.115 138.303,26.115C138.971,26.115 139.552,26.161 140.045,26.252C140.538,26.344 140.966,26.508 141.328,26.743C141.69,26.978 141.971,27.315 142.17,27.754C142.369,28.192 142.469,28.747 142.469,29.416L142.469,31.959C142.469,32.629 142.37,33.183 142.172,33.619C141.973,34.056 141.693,34.393 141.329,34.63C140.966,34.867 140.538,35.032 140.045,35.123C139.552,35.215 138.971,35.261 138.303,35.261ZM138.303,33.172C138.762,33.172 139.106,33.141 139.336,33.077C139.565,33.014 139.733,32.877 139.838,32.668C139.944,32.459 139.996,32.135 139.996,31.696L139.996,29.668C139.996,29.331 139.967,29.065 139.907,28.873C139.847,28.681 139.753,28.536 139.624,28.439C139.495,28.343 139.329,28.279 139.125,28.249C138.921,28.219 138.647,28.204 138.303,28.204C137.848,28.204 137.508,28.235 137.284,28.297C137.059,28.36 136.894,28.494 136.788,28.699C136.683,28.904 136.624,29.227 136.613,29.668L136.613,31.696C136.624,32.139 136.682,32.464 136.787,32.671C136.891,32.878 137.056,33.014 137.282,33.077C137.508,33.141 137.848,33.172 138.303,33.172Z" style="fill-rule:nonzero;"/>
            </g>
            <g transform="matrix(1,0,0,1,-0.319286,0)">
                <path d="M145.961,35.188L143.562,35.188L143.562,26.188L148.085,26.188C148.65,26.188 149.127,26.25 149.516,26.375C149.906,26.5 150.221,26.693 150.46,26.953C150.699,27.212 150.875,27.552 150.987,27.971C151.099,28.39 151.156,28.895 151.156,29.487C151.156,30.147 151.111,30.69 151.021,31.117C150.931,31.544 150.776,31.886 150.556,32.144C150.337,32.402 150.028,32.59 149.629,32.708C149.231,32.826 148.716,32.885 148.085,32.885L145.961,32.885L145.961,35.188ZM145.961,30.796L147.603,30.796C147.929,30.796 148.163,30.767 148.307,30.708C148.45,30.65 148.549,30.532 148.602,30.355C148.656,30.179 148.683,29.889 148.683,29.487C148.683,29.163 148.657,28.916 148.604,28.747C148.551,28.578 148.449,28.457 148.297,28.385C148.144,28.313 147.913,28.277 147.603,28.277L145.961,28.277L145.961,30.796Z" style="fill-rule:nonzero;"/>
            </g>
            <path d="M156.113,28.277L156.113,35.188L153.713,35.188L153.713,28.277L151.408,28.277L151.408,26.188L158.535,26.188L158.535,28.277L156.113,28.277Z" style="fill-rule:nonzero;"/>
        </g>
    </g>
</svg>
