<?xml version="1.0" standalone="no"?>
<!DOCTYPE svg PUBLIC "-//W3C//DTD SVG 20010904//EN"
 "http://www.w3.org/TR/2001/REC-SVG-20010904/DTD/svg10.dtd">
<svg version="1.0" xmlns="http://www.w3.org/2000/svg"
 width="798.000000pt" height="798.000000pt" viewBox="0 0 798.000000 798.000000"
 preserveAspectRatio="xMidYMid meet">
<metadata>
Created by potrace 1.14, written by Peter Selinger 2001-2017
</metadata>
<g transform="translate(0.000000,798.000000) scale(0.100000,-0.100000)"
fill="#000000" stroke="none">
<path d="M0 3990 l0 -3990 3990 0 3990 0 0 3990 0 3990 -3990 0 -3990 0 0
-3990z m4095 1000 c144 -12 315 -43 385 -69 26 -10 204 -103 396 -206 192
-104 401 -216 464 -250 63 -34 161 -87 216 -117 l102 -55 263 -22 c491 -41
905 -94 1186 -152 151 -30 302 -119 455 -267 93 -89 134 -144 123 -163 -16
-24 -103 21 -266 138 -175 125 -220 164 -208 180 7 8 16 10 23 5 171 -132 356
-262 372 -262 14 0 -77 88 -154 150 -90 74 -191 134 -267 161 -149 52 -888
148 -1433 185 l-104 7 -151 82 c-84 45 -341 185 -572 310 -231 126 -444 237
-472 246 -29 10 -110 28 -180 40 -110 20 -163 23 -383 23 -480 1 -912 -69
-1530 -245 -223 -64 -621 -187 -770 -238 -268 -91 -717 -265 -838 -323 -84
-41 -216 -133 -261 -182 l-24 -26 76 0 c70 0 77 -2 77 -20 0 -19 -7 -20 -110
-20 -64 0 -110 4 -110 10 0 20 123 139 192 187 94 65 147 91 331 164 400 159
632 241 977 348 845 262 1233 343 1830 384 106 8 246 6 365 -3z m-166 -100
c259 -14 420 -66 626 -201 93 -62 236 -154 494 -321 l214 -138 -50 0 c-47 0
-59 6 -187 94 -75 52 -144 95 -154 95 -9 0 -43 9 -76 21 -32 12 -70 20 -84 18
-31 -4 -42 -28 -13 -28 35 0 131 -41 141 -60 16 -30 12 -35 -12 -13 -27 25
-90 51 -133 55 -28 3 -30 0 -33 -32 -1 -19 6 -50 15 -69 16 -30 26 -37 76 -48
117 -26 99 -34 -68 -28 -88 3 -441 10 -785 16 -344 6 -628 14 -632 17 -3 4
-43 122 -88 262 -45 140 -83 261 -85 268 -7 20 30 30 221 57 321 46 366 49
613 35z m1109 -361 l553 -294 -64 -3 -65 -3 -178 107 c-641 382 -564 336 -564
331 0 -4 30 -24 275 -179 99 -63 229 -146 289 -184 76 -48 103 -70 89 -72 -12
-2 -58 22 -109 56 -49 32 -136 90 -194 127 -332 216 -539 356 -570 385 -19 19
-30 31 -25 28 6 -2 259 -137 563 -299z m-1993 64 c32 -109 67 -227 77 -262
l18 -64 -203 7 c-686 23 -894 43 -948 92 -25 23 -24 69 2 95 67 67 568 244
889 313 114 25 99 41 165 -181z m-346 162 c-3 -2 -59 -20 -124 -40 -364 -110
-634 -209 -841 -309 -198 -95 -193 -105 46 -107 125 -2 151 -4 105 -9 -92 -12
-284 -11 -306 0 -22 12 -25 43 -6 58 27 22 241 124 358 170 170 68 300 111
524 175 232 67 254 73 244 62z m1434 -531 c202 -4 370 -10 372 -14 2 -3 -33
-5 -78 -3 -45 1 -320 4 -610 6 -413 3 -530 7 -540 17 -10 10 35 11 238 6 138
-3 416 -9 618 -12z m610 -21 c-40 -2 -107 -2 -150 0 -43 1 -10 3 72 3 83 0
118 -2 78 -3z m15 -20 c67 -3 122 -9 122 -12 0 -3 -586 -6 -1302 -6 -1361 0
-1444 -2 -1853 -46 -271 -29 -775 -104 -900 -135 -16 -4 -17 -3 -5 5 18 11
317 71 500 100 299 48 678 87 965 101 196 9 2274 4 2473 -7z m1228 -18 c345
-23 814 -77 984 -115 l45 -9 -55 4 c-30 2 -170 17 -310 34 -521 62 -819 81
-1263 81 -216 0 -326 3 -322 10 10 16 657 12 921 -5z m1077 -132 c-7 -2 -21
-2 -30 0 -10 3 -4 5 12 5 17 0 24 -2 18 -5z"/>
<path d="M3430 4836 c-85 -13 -187 -29 -226 -35 l-72 -12 81 -244 81 -243 126
-6 c69 -3 325 -8 570 -11 245 -3 493 -8 553 -11 l107 -6 -10 27 c-5 14 -10 52
-10 84 0 74 24 108 78 113 37 3 37 3 -108 104 -191 133 -219 150 -309 189
-135 57 -199 67 -466 71 -211 3 -258 1 -395 -20z"/>
<path d="M2866 4734 c-129 -31 -457 -128 -561 -166 -136 -50 -266 -111 -290
-138 -47 -52 45 -75 385 -95 311 -19 681 -32 685 -25 3 5 -16 71 -104 368 -24
80 -21 79 -115 56z"/>
</g>
</svg>
