<svg width="247" height="40" viewBox="0 0 247 40" fill="none" xmlns="http://www.w3.org/2000/svg">
<path d="M48.8961 34.7402C48.1169 34.3506 47.4675 33.7013 47.0779 32.9221C46.6234 32.1428 46.4286 31.2338 46.4286 30.1948V23.8312C46.4286 22.7922 46.6234 21.8831 47.0779 21.1039C47.5325 20.3247 48.1169 19.7402 48.8961 19.2857C49.6753 18.8961 50.6494 18.6364 51.6883 18.6364C52.7273 18.6364 53.7013 18.8312 54.4805 19.2857C55.2598 19.7402 55.9091 20.3247 56.2987 21.1039C56.7533 21.8831 56.9481 22.7922 56.9481 23.8312V30.1948C56.9481 31.2338 56.7533 32.1428 56.2987 32.9221C55.8442 33.7013 55.2598 34.2857 54.4805 34.7402C53.7013 35.1948 52.7273 35.3896 51.6883 35.3896C50.5844 35.3247 49.6753 35.1299 48.8961 34.7402ZM52.8572 32.0779C53.1818 31.8831 53.4416 31.6234 53.6364 31.2987C53.8312 30.974 53.8961 30.5195 53.8961 30.0649V23.8312C53.8961 23.3766 53.8312 22.987 53.6364 22.5974C53.4416 22.2727 53.1818 22.013 52.8572 21.8182C52.5325 21.6234 52.1429 21.5584 51.6883 21.5584C51.2338 21.5584 50.8442 21.6234 50.5195 21.8182C50.1948 22.013 49.9351 22.2727 49.7403 22.5974C49.5455 22.9221 49.4805 23.3766 49.4805 23.8312V30.0649C49.4805 30.5195 49.5455 30.9091 49.7403 31.2987C49.9351 31.6883 50.1948 31.8831 50.5195 32.0779C50.8442 32.2727 51.2338 32.3376 51.6883 32.3376C52.1429 32.4026 52.5325 32.2727 52.8572 32.0779Z" fill="#27A5DD"/>
<path d="M61.4935 34.7402C60.7143 34.3506 60.065 33.7013 59.6754 32.9221C59.2208 32.1428 59.026 31.2338 59.026 30.1948V23.8312C59.026 22.7922 59.2208 21.8831 59.6754 21.1039C60.1299 20.3247 60.7143 19.7402 61.4935 19.2857C62.2727 18.8961 63.2468 18.6364 64.2857 18.6364C65.3247 18.6364 66.2987 18.8312 67.0779 19.2857C67.8572 19.7402 68.5065 20.3247 68.8961 21.1039C69.3507 21.8831 69.5455 22.7922 69.5455 23.8312V30.1948C69.5455 31.2338 69.3507 32.1428 68.8961 32.9221C68.4416 33.7013 67.8572 34.2857 67.0779 34.7402C66.2987 35.1948 65.3247 35.3896 64.2857 35.3896C63.2468 35.3247 62.3377 35.1299 61.4935 34.7402ZM65.5195 32.0779C65.8442 31.8831 66.1039 31.6234 66.2987 31.2987C66.4935 30.974 66.5585 30.5844 66.5585 30.0649V23.8312C66.5585 23.3766 66.4935 22.987 66.2987 22.5974C66.1039 22.2727 65.8442 22.013 65.5195 21.8182C65.1948 21.6234 64.8052 21.5584 64.3507 21.5584C63.8961 21.5584 63.5065 21.6234 63.1818 21.8182C62.8572 22.013 62.5974 22.2727 62.4026 22.5974C62.2078 22.9221 62.1429 23.3766 62.1429 23.8312V30.0649C62.1429 30.5195 62.2078 30.9091 62.4026 31.2987C62.5974 31.6883 62.8572 31.8831 63.1818 32.0779C63.5065 32.2727 63.8961 32.3376 64.3507 32.3376C64.7403 32.4026 65.1299 32.2727 65.5195 32.0779Z" fill="#27A5DD"/>
<path d="M74.1558 34.7402C73.3766 34.3506 72.7273 33.7013 72.3376 32.9221C71.8831 32.1428 71.6883 31.2338 71.6883 30.1948V23.8312C71.6883 22.7922 71.8831 21.8831 72.3376 21.1039C72.7922 20.3247 73.3766 19.7402 74.1558 19.2857C74.935 18.8961 75.9091 18.6364 76.948 18.6364C77.987 18.6364 78.961 18.8312 79.7402 19.2857C80.5195 19.7402 81.1688 20.3247 81.5584 21.1039C82.013 21.8831 82.2078 22.7922 82.2078 23.8312V30.1948C82.2078 31.2338 82.013 32.1428 81.5584 32.9221C81.1039 33.7013 80.5195 34.2857 79.7402 34.7402C78.961 35.1948 77.987 35.3896 76.948 35.3896C75.9091 35.3247 75 35.1299 74.1558 34.7402ZM78.1169 32.0779C78.4415 31.8831 78.7013 31.6234 78.8961 31.2987C79.0909 30.974 79.1558 30.5844 79.1558 30.0649V23.8312C79.1558 23.3766 79.0909 22.987 78.8961 22.5974C78.7013 22.2727 78.4415 22.013 78.1169 21.8182C77.7922 21.6234 77.4026 21.5584 76.948 21.5584C76.4935 21.5584 76.1039 21.6234 75.7792 21.8182C75.4545 22.013 75.1948 22.2727 75 22.5974C74.8052 22.9221 74.7402 23.3766 74.7402 23.8312V30.0649C74.7402 30.5195 74.8052 30.9091 75 31.2987C75.1948 31.6883 75.4545 31.8831 75.7792 32.0779C76.1039 32.2727 76.4935 32.3376 76.948 32.3376C77.4026 32.4026 77.7922 32.2727 78.1169 32.0779Z" fill="#27A5DD"/>
<path d="M91.7532 25.2598H94.9999L92.6623 29.2857H89.4155L91.7532 25.2598ZM89.3506 29.2857H92.5973L94.935 33.3117H91.6882L89.3506 29.2857ZM96.5584 25.2598H99.7402L97.4025 29.2857H94.1558L96.5584 25.2598ZM94.2207 29.2857H97.4675L99.8051 33.3117H96.6233L94.2207 29.2857Z" fill="#27A5DD"/>
<path d="M101.493 18.7662H104.481V35.1948H101.493V18.7662ZM102.857 18.7662H110.779V21.6234H102.857V18.7662ZM102.922 32.3377H107.078C107.403 32.3377 107.727 32.2727 107.922 32.0779C108.182 31.948 108.377 31.6883 108.506 31.4286C108.636 31.1688 108.701 30.7792 108.701 30.3896V29.8701C108.701 29.4805 108.636 29.1558 108.506 28.8312C108.377 28.5065 108.182 28.3117 107.922 28.1818C107.662 28.0519 107.403 27.9221 107.013 27.9221H102.857V25.0649H107.208C108.117 25.0649 108.896 25.2597 109.61 25.6493C110.325 26.039 110.844 26.5584 111.169 27.2078C111.558 27.9221 111.753 28.7013 111.753 29.6104V30.6493C111.753 31.5584 111.558 32.3377 111.169 33.0519C110.779 33.7013 110.26 34.2857 109.61 34.6104C108.896 35 108.117 35.1299 107.208 35.1299H102.857V32.3377H102.922Z" fill="#27A5DD"/>
<path d="M114.61 34.4805C114.026 33.8961 113.766 32.987 113.766 31.8831C113.766 30.7143 114.091 29.8052 114.805 29.1559C115.454 28.5714 116.493 28.2468 117.792 28.2468H119.935L120.13 30.5195H117.922C117.467 30.5195 117.143 30.6494 116.883 30.8442C116.623 31.039 116.558 31.4286 116.558 31.8182C116.558 32.2078 116.688 32.4675 116.883 32.6623C117.143 32.8572 117.467 32.9221 117.922 32.9221C118.571 32.9221 119.026 32.7922 119.351 32.5974C119.675 32.4026 119.87 32.0779 119.87 31.6883L120.13 33.1169C120.065 33.5714 119.935 33.9611 119.675 34.3507C119.416 34.6753 119.026 34.9351 118.571 35.1299C118.117 35.3247 117.662 35.3896 117.143 35.3896C116.039 35.3247 115.195 35.0649 114.61 34.4805ZM119.87 27.4026C119.87 26.9481 119.74 26.6234 119.416 26.3637C119.156 26.1039 118.701 25.974 118.182 25.974C117.792 25.974 117.467 26.039 117.143 26.2338C116.818 26.4286 116.558 26.6234 116.364 26.8831L114.156 25.7792C114.416 25 114.935 24.4156 115.649 23.9611C116.364 23.5065 117.208 23.3117 118.247 23.3117C119.156 23.3117 119.935 23.4416 120.584 23.7662C121.234 24.0909 121.753 24.5455 122.078 25.1299C122.403 25.7143 122.597 26.4286 122.597 27.3377V35.1948H119.87V27.4026Z" fill="#27A5DD"/>
<path d="M125.325 23.5065H128.117V35.1948H125.325V23.5065ZM126.883 32.4675H136.429V35.1298H126.883V32.4675ZM130.13 23.5065H132.922V35.1948H130.13V23.5065ZM134.935 23.5065H137.727V35.1948H134.935V23.5065Z" fill="#27A5DD"/>
<path d="M140.519 23.5065H143.506V35.1948H140.519V23.5065ZM141.818 27.9221H147.468V30.7792H141.818V27.9221ZM144.805 30.2597L147.403 28.8961L150 35.1299H146.753L144.805 30.2597ZM144.805 28.4416L146.364 23.4416H149.416L147.078 30.2597L144.805 28.4416Z" fill="#27A5DD"/>
<path d="M157.273 35.1948V27.4026L157.532 27.7272L153.571 35.1948H151.104V23.5065H153.831V31.4285L153.571 31.1039L157.532 23.5065H159.935V35.1948H157.273Z" fill="#27A5DD"/>
<path d="M162.857 23.5065H165.844V40H162.857V23.5065ZM166.688 34.8052C166.234 34.4805 165.909 33.961 165.649 33.3117L165.779 31.039C165.779 31.3636 165.844 31.6234 165.974 31.8831C166.104 32.1428 166.234 32.2727 166.428 32.4026C166.623 32.5325 166.883 32.5974 167.208 32.5974C167.662 32.5974 168.052 32.4675 168.247 32.1429C168.506 31.8182 168.636 31.3636 168.636 30.8441V27.8571C168.636 27.2727 168.506 26.8182 168.247 26.5584C167.987 26.2987 167.662 26.1039 167.208 26.1039C166.883 26.1039 166.623 26.1688 166.428 26.2987C166.234 26.4286 166.039 26.6234 165.974 26.8182C165.844 27.0779 165.779 27.3377 165.779 27.6623L165.519 25.5195C165.844 24.8052 166.169 24.2857 166.688 23.961C167.208 23.6364 167.662 23.3766 168.247 23.3766C168.961 23.3766 169.545 23.5714 170.065 23.8961C170.584 24.2208 170.909 24.7403 171.169 25.3896C171.429 26.039 171.558 26.8182 171.558 27.7273V31.1039C171.558 32.013 171.429 32.7922 171.169 33.4416C170.909 34.0909 170.519 34.6104 170 34.9351C169.48 35.2597 168.896 35.4545 168.182 35.4545C167.662 35.3247 167.143 35.1948 166.688 34.8052Z" fill="#27A5DD"/>
<path d="M176.234 35.3247C176.234 35.3247 175.974 35.1948 175.39 35C174.805 34.8052 174.351 34.4805 173.961 34.026C173.571 33.5714 173.312 33.052 173.182 32.4675L175.844 31.2987C175.974 31.8182 176.169 32.1429 176.429 32.4026C176.688 32.6623 177.013 32.7922 177.338 32.7922C177.857 32.7922 178.312 32.5974 178.571 32.2727C178.831 31.9481 179.026 31.4286 179.026 30.8442V27.9221C179.026 27.3377 178.896 26.8831 178.571 26.5584C178.312 26.2338 177.857 26.039 177.338 26.039C176.948 26.039 176.688 26.1688 176.429 26.4286C176.169 26.6883 175.974 27.0779 175.844 27.5325L173.247 26.3636C173.377 25.7143 173.636 25.1299 174.026 24.7403C174.416 24.3506 174.87 23.961 175.454 23.7662C176.039 23.5714 176.688 23.4416 177.403 23.4416C178.377 23.4416 179.221 23.6364 179.935 23.961C180.649 24.3507 181.169 24.8701 181.493 25.5195C181.883 26.2338 182.013 27.013 182.013 27.987V30.9091C182.013 31.8831 181.818 32.6623 181.493 33.3766C181.104 34.026 180.584 34.5455 179.935 34.9351C179.221 35.2597 178.377 35.4545 177.403 35.4545C176.558 35.3247 176.234 35.3247 176.234 35.3247ZM175.844 30.6494V28.052H180.065V30.6494H175.844Z" fill="#27A5DD"/>
<path d="M184.48 23.5065H187.402V35.1948H184.48V23.5065ZM186.039 28.0519H192.208V30.8441H186.039V28.0519ZM190.39 23.5065H193.312V35.1948H190.39V23.5065Z" fill="#27A5DD"/>
<path d="M199.026 35.3247C199.026 35.3247 198.701 35.1299 197.987 34.8052C197.273 34.4156 196.753 33.8961 196.364 33.2468C195.974 32.5325 195.779 31.7533 195.779 30.7792V28.1169C195.779 27.0779 195.974 26.2338 196.299 25.5195C196.623 24.8052 197.143 24.2857 197.857 23.8961C198.571 23.5065 199.351 23.3117 200.325 23.3117C201.234 23.3117 202.013 23.5065 202.727 23.9611C203.377 24.3507 203.896 25 204.221 25.7792C204.545 26.5585 204.74 27.5325 204.74 28.7013V30.5195H197.922V28.4416H201.948V27.7273C201.948 27.2078 201.818 26.7533 201.493 26.4935C201.169 26.2338 200.779 26.039 200.325 26.039C199.74 26.039 199.351 26.2338 199.026 26.5585C198.701 26.8831 198.571 27.4026 198.571 28.052V30.9091C198.571 31.4935 198.701 32.013 199.026 32.3377C199.351 32.6624 199.805 32.8572 200.39 32.8572C200.779 32.8572 201.104 32.7273 201.428 32.5325C201.753 32.3377 201.948 32.013 202.143 31.6234L204.545 32.8572C204.221 33.7013 203.766 34.3507 203.052 34.8052C202.338 35.2598 201.493 35.4546 200.454 35.4546C199.545 35.3247 199.026 35.3247 199.026 35.3247Z" fill="#27A5DD"/>
<path d="M207.208 23.5065H210.195V40H207.208V23.5065ZM211.039 34.8052C210.584 34.4805 210.26 33.961 210 33.3117L210.13 31.039C210.13 31.3636 210.195 31.6234 210.325 31.8831C210.454 32.1428 210.584 32.2727 210.779 32.4026C210.974 32.5325 211.234 32.5974 211.558 32.5974C212.013 32.5974 212.402 32.4675 212.597 32.1429C212.857 31.8182 212.987 31.3636 212.987 30.8441V27.8571C212.987 27.2727 212.857 26.8182 212.597 26.5584C212.338 26.2987 212.013 26.1039 211.558 26.1039C211.234 26.1039 210.974 26.1688 210.779 26.2987C210.584 26.4286 210.39 26.6234 210.325 26.8182C210.195 27.0779 210.13 27.3377 210.13 27.6623L209.87 25.5195C210.195 24.8052 210.519 24.2857 211.039 23.961C211.558 23.6364 212.013 23.3766 212.597 23.3766C213.312 23.3766 213.896 23.5714 214.415 23.8961C214.935 24.2208 215.26 24.7403 215.519 25.3896C215.779 26.039 215.909 26.8182 215.909 27.7273V31.1039C215.909 32.013 215.779 32.7922 215.519 33.4416C215.26 34.0909 214.87 34.6104 214.351 34.9351C213.831 35.2597 213.247 35.4545 212.532 35.4545C212.013 35.3247 211.493 35.1948 211.039 34.8052Z" fill="#27A5DD"/>
<path d="M218.442 23.5065H221.429V35.1948H218.442V23.5065ZM219.675 23.5065H225.454V26.3636H219.675V23.5065Z" fill="#27A5DD"/>
<path d="M228.052 34.8701C227.402 34.5455 226.883 34.026 226.558 33.3766C226.234 32.7273 226.039 31.9481 226.039 31.039V27.5974C226.039 26.6883 226.234 25.9091 226.558 25.2598C226.883 24.6104 227.402 24.1559 228.052 23.8312C228.701 23.5065 229.545 23.3117 230.454 23.3117C231.364 23.3117 232.208 23.5065 232.857 23.8312C233.506 24.1559 234.026 24.6753 234.351 25.2598C234.675 25.9091 234.87 26.6883 234.87 27.5974V31.039C234.87 31.9481 234.675 32.7273 234.351 33.3766C234.026 34.026 233.506 34.4805 232.857 34.8701C232.208 35.1948 231.364 35.3896 230.454 35.3896C229.48 35.3247 228.701 35.1948 228.052 34.8701ZM231.493 32.1429C231.753 31.8831 231.883 31.4935 231.883 30.974V27.6624C231.883 27.1429 231.753 26.7533 231.493 26.4935C231.234 26.2338 230.844 26.1039 230.389 26.1039C229.935 26.1039 229.545 26.2338 229.286 26.4935C229.026 26.7533 228.896 27.1429 228.896 27.6624V30.974C228.896 31.4935 229.026 31.8831 229.286 32.1429C229.545 32.4026 229.87 32.5325 230.389 32.5325C230.909 32.5325 231.234 32.4026 231.493 32.1429Z" fill="#27A5DD"/>
<path d="M236.169 25.2598H239.416L241.753 29.2857H238.506L236.169 25.2598ZM238.571 29.2857H241.818L239.48 33.3117H236.234L238.571 29.2857ZM241.039 25.2598H244.286L246.623 29.2857H243.441L241.039 25.2598ZM243.377 29.2857H246.558L244.221 33.3117H240.974L243.377 29.2857Z" fill="#27A5DD"/>
<path d="M62.4675 11.6883L54.2857 0H51.4935L59.6753 11.6883H62.4675Z" fill="#27A5DD"/>
<path d="M66.3636 11.6883L58.1818 0H57.2727L65.4545 11.6883H66.3636Z" fill="#27A5DD"/>
<path d="M69.8701 11.6883L61.6883 0H60.7792L68.961 11.6883H69.8701Z" fill="#27A5DD"/>
<path d="M48.8961 0H40.9091L16.5584 24.2857L15.5844 23.3766L27.2727 11.6883L11.8182 11.7532L0 23.3766L11.6883 35.0649H27.2727L50.3247 11.6883H57.0779L48.8961 0Z" fill="#27A5DD"/>
</svg>
