<svg width="19" height="19" viewBox="0 0 19 19" fill="none" xmlns="http://www.w3.org/2000/svg">
<path d="M9.5 0C5.81682 0 2.82031 2.99651 2.82031 6.67969C2.82031 7.92411 3.16502 9.13855 3.8174 10.1922L9.11978 18.7369C9.22135 18.9005 9.40029 19 9.59274 19C9.59422 19 9.59567 19 9.59715 19C9.79127 18.9985 9.97058 18.8959 10.0703 18.7294L15.2375 10.1019C15.8539 9.07057 16.1797 7.88719 16.1797 6.67969C16.1797 2.99651 13.1832 0 9.5 0ZM14.2821 9.53036L9.58431 17.3741L4.76362 9.60561C4.2206 8.72864 3.92617 7.71689 3.92617 6.67969C3.92617 3.61037 6.43068 1.10586 9.5 1.10586C12.5693 1.10586 15.0701 3.61037 15.0701 6.67969C15.0701 7.68613 14.7951 8.67202 14.2821 9.53036Z" fill="#EF5044"/>
<path d="M9.5 3.33984C7.65841 3.33984 6.16016 4.8381 6.16016 6.67969C6.16016 8.50951 7.63403 10.0195 9.5 10.0195C11.389 10.0195 12.8398 8.4894 12.8398 6.67969C12.8398 4.8381 11.3416 3.33984 9.5 3.33984ZM9.5 8.91367C8.26585 8.91367 7.26602 7.91049 7.26602 6.67969C7.26602 5.45196 8.27227 4.4457 9.5 4.4457C10.7277 4.4457 11.7303 5.45196 11.7303 6.67969C11.7303 7.89253 10.7537 8.91367 9.5 8.91367Z" fill="#EF5044"/>
</svg>
