<svg width="24" height="24" viewBox="0 0 24 24" fill="none" xmlns="http://www.w3.org/2000/svg">
<path d="M19.7573 14.4866C19.2455 13.9537 18.6281 13.6688 17.9738 13.6688C17.3248 13.6688 16.7022 13.9484 16.1693 14.4813L14.502 16.1434C14.3648 16.0695 14.2276 16.0009 14.0957 15.9323C13.9057 15.8374 13.7263 15.7477 13.5733 15.6527C12.0115 14.6607 10.5921 13.368 9.23082 11.6954C8.57126 10.8617 8.12804 10.1599 7.80618 9.44762C8.23885 9.05189 8.63986 8.64033 9.03031 8.24459C9.17805 8.09685 9.32579 7.94384 9.47353 7.7961C10.5816 6.68805 10.5816 5.25286 9.47353 4.14482L8.03307 2.70435C7.8695 2.54078 7.70065 2.37194 7.54236 2.20309C7.22578 1.87596 6.89336 1.53826 6.55039 1.22168C6.03858 0.715142 5.42652 0.446045 4.78279 0.446045C4.13907 0.446045 3.51645 0.715142 2.98881 1.22168C2.98353 1.22696 2.98353 1.22696 2.97826 1.23223L1.18427 3.04204C0.508891 3.71743 0.123713 4.54055 0.0392898 5.49558C-0.0873443 7.03629 0.366428 8.47148 0.714672 9.41068C1.56945 11.7165 2.84635 13.8534 4.75113 16.1434C7.06221 18.903 9.84288 21.0821 13.0193 22.6176C14.2329 23.1927 15.8527 23.8734 17.6625 23.9894C17.7733 23.9947 17.8894 24 17.995 24C19.2138 24 20.2374 23.562 21.0394 22.6914C21.0447 22.6809 21.0553 22.6756 21.0606 22.6651C21.3349 22.3326 21.6515 22.0319 21.9839 21.71C22.2108 21.4937 22.443 21.2668 22.6699 21.0294C23.1922 20.4859 23.4666 19.8527 23.4666 19.2037C23.4666 18.5494 23.187 17.9216 22.654 17.3939L19.7573 14.4866ZM21.6462 20.0427C21.641 20.0427 21.641 20.0479 21.6462 20.0427C21.4405 20.2643 21.2294 20.4648 21.0025 20.6864C20.6595 21.0135 20.3113 21.3565 19.9842 21.7417C19.4512 22.3115 18.8234 22.5806 18.0002 22.5806C17.9211 22.5806 17.8367 22.5806 17.7575 22.5754C16.1904 22.4751 14.7341 21.863 13.6419 21.3407C10.6554 19.8949 8.03307 17.8424 5.85391 15.2411C4.05465 13.0725 2.85162 11.0675 2.05488 8.9147C1.56418 7.60087 1.38478 6.57725 1.46392 5.61166C1.51669 4.99432 1.75413 4.48251 2.19207 4.04456L3.99133 2.2453C4.24987 2.00259 4.52425 1.87068 4.79335 1.87068C5.12576 1.87068 5.39486 2.07118 5.5637 2.24003C5.56898 2.2453 5.57426 2.25058 5.57953 2.25586C5.90139 2.55661 6.20743 2.86792 6.52929 3.20034C6.69286 3.36918 6.8617 3.53803 7.03055 3.71215L8.47101 5.15261C9.03031 5.71191 9.03031 6.229 8.47101 6.7883C8.318 6.94132 8.17025 7.09434 8.01724 7.24207C7.57402 7.69585 7.15191 8.11796 6.69286 8.52952C6.6823 8.54007 6.67175 8.54535 6.66648 8.5559C6.2127 9.00968 6.29713 9.4529 6.3921 9.75365C6.39738 9.76948 6.40265 9.78531 6.40793 9.80114C6.78256 10.7087 7.3102 11.5635 8.11222 12.5818L8.11749 12.5871C9.57378 14.3811 11.1092 15.7793 12.803 16.8504C13.0193 16.9876 13.2409 17.0984 13.452 17.204C13.6419 17.2989 13.8213 17.3886 13.9743 17.4836C13.9954 17.4942 14.0165 17.51 14.0376 17.5205C14.217 17.6102 14.3859 17.6525 14.56 17.6525C14.9979 17.6525 15.2723 17.3781 15.362 17.2884L17.1666 15.4838C17.346 15.3044 17.6309 15.0881 17.9633 15.0881C18.2904 15.0881 18.5595 15.2939 18.7231 15.4733C18.7284 15.4786 18.7284 15.4786 18.7337 15.4838L21.641 18.3912C22.1844 18.9293 22.1844 19.4834 21.6462 20.0427Z" fill="#EF5044"/>
</svg>
