<?xml version="1.0" encoding="UTF-8" standalone="no"?>
<!DOCTYPE svg PUBLIC "-//W3C//DTD SVG 1.1//EN" "http://www.w3.org/Graphics/SVG/1.1/DTD/svg11.dtd">
<svg width="100%" height="100%" viewBox="0 0 2451 313" version="1.1" xmlns="http://www.w3.org/2000/svg" xmlns:xlink="http://www.w3.org/1999/xlink" xml:space="preserve" xmlns:serif="http://www.serif.com/" style="fill-rule:evenodd;clip-rule:evenodd;stroke-linejoin:round;stroke-miterlimit:2;">
    <g transform="matrix(1,0,0,1,-575,-833.333)">
        <g transform="matrix(4.16667,0,0,4.16667,0,0)">
            <g transform="matrix(1,0,0,1,254.395,274.992)">
                <path d="M0,-74.985C-20.869,-75.396 -37.955,-58.558 -37.801,-37.946L-70.103,-37.946L-70.103,-53.698L-77.876,-53.698L-77.876,-42.002L-108.506,-42.002L-108.506,-53.698L-116.395,-53.698L-116.395,-21.287L-108.506,-21.287L-108.506,-34.062L-77.876,-34.062L-77.876,-21.287L-70.103,-21.287L-70.103,-37.039L-37.801,-37.039C-37.955,-16.428 -20.869,0.411 0,0C20.769,0.411 37.751,-16.428 37.698,-37.039L73.065,-37.039L73.065,-37.946L37.698,-37.946C37.751,-58.558 20.769,-75.396 0,-74.985M-0.053,-9.347C-15.744,-9.347 -27.45,-21.178 -27.45,-37.492C-27.45,-53.807 -15.744,-65.637 -0.053,-65.637C15.64,-65.637 27.346,-53.807 27.346,-37.492C27.346,-21.178 15.64,-9.347 -0.053,-9.347M434.795,-9.347C419.251,-9.347 407.624,-20.96 407.408,-37.039L407.5,-37.039L407.5,-37.946L407.408,-37.946C407.624,-54.025 419.251,-65.637 434.795,-65.637C447.415,-65.637 457.451,-57.984 460.9,-46.503L471.824,-46.503C468.099,-63.386 453.391,-74.985 435.471,-74.985C414.701,-75.396 397.72,-58.558 397.777,-37.946L363.853,-37.946L376.531,-53.698L365.104,-53.698L353.75,-39.668L342.253,-53.698L330.683,-53.698L343.6,-37.946L305.371,-37.946L305.371,-53.698L260.502,-53.698L260.502,-37.946L215.862,-37.946L215.862,-40.873L169.129,-40.873L169.129,-47.401L217.363,-47.401L217.363,-53.698L159.802,-53.698L159.802,-37.946L124.444,-37.946L124.444,-53.698L112.588,-53.698L98.789,-41.566L84.921,-53.698L73.065,-53.698L73.065,-21.287L83.412,-21.287L83.412,-44.066L98.288,-30.871L99.294,-30.871L114.169,-44.066L114.169,-21.287L124.444,-21.287L124.444,-37.039L159.802,-37.039L159.802,-21.287L217.363,-21.287L217.363,-27.584L169.129,-27.584L169.129,-34.575L215.862,-34.575L215.862,-37.039L260.502,-37.039L260.502,-21.287L270.78,-21.287L270.78,-32.029L305.371,-32.029L305.371,-37.039L344.344,-37.039L348.073,-32.491L338.948,-21.287L350.445,-21.287L363.123,-37.039L397.777,-37.039C397.72,-16.428 414.701,0.411 435.471,0C453.391,0 468.099,-11.703 471.824,-28.379L460.867,-28.379C457.389,-16.956 447.377,-9.347 434.795,-9.347M297.482,-38.372L270.78,-38.372L270.78,-47.401L297.482,-47.401L297.482,-38.372Z" style="fill:rgb(232,69,58);fill-rule:nonzero;"/>
            </g>
        </g>
    </g>
</svg>
