<?xml version="1.0" encoding="UTF-8" standalone="no"?>
<!DOCTYPE svg PUBLIC "-//W3C//DTD SVG 1.1//EN" "http://www.w3.org/Graphics/SVG/1.1/DTD/svg11.dtd">
<svg width="100%" height="100%" viewBox="0 0 26 26" version="1.1" xmlns="http://www.w3.org/2000/svg" xmlns:xlink="http://www.w3.org/1999/xlink" xml:space="preserve" xmlns:serif="http://www.serif.com/" style="fill-rule:evenodd;clip-rule:evenodd;stroke-linejoin:round;stroke-miterlimit:2;">
    <g transform="matrix(0.962175,0,0,0.962175,0.491725,0.491725)">
        <path d="M13.003,0L12.997,0C5.829,0 0,5.831 0,13C0,15.844 0.917,18.48 2.475,20.62L0.855,25.449L5.852,23.852C7.907,25.214 10.359,26 13.003,26C20.171,26 26,20.168 26,13C26,5.832 20.171,0 13.003,0Z" style="fill:rgb(76,175,80);fill-rule:nonzero;"/>
    </g>
    <g transform="matrix(0.962175,0,0,0.962175,0.491725,0.491725)">
        <path d="M20.568,18.358C20.254,19.243 19.01,19.978 18.017,20.192C17.337,20.337 16.45,20.452 13.463,19.214C9.643,17.631 7.183,13.749 6.991,13.497C6.807,13.245 5.447,11.442 5.447,9.576C5.447,7.711 6.395,6.802 6.777,6.412C7.09,6.092 7.609,5.946 8.106,5.946C8.267,5.946 8.411,5.954 8.541,5.96C8.923,5.977 9.115,5.999 9.367,6.602C9.68,7.358 10.444,9.223 10.535,9.415C10.628,9.607 10.72,9.867 10.59,10.119C10.469,10.379 10.361,10.494 10.17,10.715C9.978,10.936 9.796,11.105 9.604,11.343C9.429,11.549 9.23,11.77 9.451,12.152C9.672,12.525 10.436,13.772 11.561,14.773C13.012,16.065 14.188,16.478 14.609,16.653C14.923,16.783 15.296,16.752 15.525,16.508C15.816,16.195 16.176,15.675 16.541,15.163C16.801,14.796 17.129,14.75 17.474,14.88C17.825,15.002 19.682,15.92 20.064,16.11C20.446,16.302 20.698,16.393 20.791,16.554C20.882,16.715 20.882,17.47 20.568,18.358Z" style="fill:rgb(250,250,250);fill-rule:nonzero;"/>
    </g>
</svg>
