<svg width="26" height="26" viewBox="0 0 26 26" fill="none" xmlns="http://www.w3.org/2000/svg">
<path d="M13.0033 0H12.9967C5.82888 0 0 5.8305 0 13C0 15.8438 0.9165 18.4795 2.47487 20.6196L0.85475 25.4491L5.85162 23.8518C7.90725 25.2135 10.3594 26 13.0033 26C20.1711 26 26 20.1679 26 13C26 5.83213 20.1711 0 13.0033 0Z" fill="#4CAF50"/>
<path d="M20.5679 18.3576C20.2543 19.2432 19.0095 19.9777 18.0166 20.1922C17.3374 20.3368 16.4501 20.4522 13.4634 19.214C9.64301 17.6312 7.18277 13.7491 6.99102 13.4972C6.80739 13.2454 5.44727 11.4416 5.44727 9.57611C5.44727 7.71061 6.39464 6.80224 6.77652 6.41224C7.09014 6.09211 7.60852 5.94586 8.10577 5.94586C8.26664 5.94586 8.41127 5.95399 8.54127 5.96049C8.92314 5.97674 9.11489 5.99949 9.36677 6.60236C9.68039 7.35799 10.4441 9.22348 10.5351 9.41523C10.6278 9.60698 10.7204 9.86698 10.5904 10.1189C10.4685 10.3789 10.3613 10.4942 10.1695 10.7152C9.97777 10.9362 9.79577 11.1052 9.60402 11.3425C9.42852 11.5489 9.23027 11.7699 9.45127 12.1517C9.67227 12.5255 10.436 13.7719 11.5605 14.7729C13.0116 16.0647 14.1881 16.4775 14.609 16.653C14.9226 16.783 15.2964 16.7521 15.5255 16.5083C15.8164 16.1947 16.1755 15.6747 16.5411 15.1629C16.8011 14.7956 17.1294 14.7501 17.4739 14.8801C17.8249 15.002 19.6823 15.9201 20.0641 16.1102C20.446 16.302 20.6979 16.393 20.7905 16.5538C20.8815 16.7147 20.8815 17.4703 20.5679 18.3576Z" fill="#FAFAFA"/>
</svg>
