<?xml version="1.0" encoding="UTF-8" standalone="no"?>
<!DOCTYPE svg PUBLIC "-//W3C//DTD SVG 1.1//EN" "http://www.w3.org/Graphics/SVG/1.1/DTD/svg11.dtd">
<svg width="100%" height="100%" viewBox="0 0 26 26" version="1.1" xmlns="http://www.w3.org/2000/svg" xmlns:xlink="http://www.w3.org/1999/xlink" xml:space="preserve" xmlns:serif="http://www.serif.com/" style="fill-rule:evenodd;clip-rule:evenodd;stroke-linejoin:round;stroke-miterlimit:2;">
    <g transform="matrix(0.717265,0,0,0.720675,-0.975338,-0.654148)">
        <path d="M3.18,35.524L5.364,29.12C3.398,26.552 2.061,22.761 2.039,19.13C1.979,9.464 9.865,1.59 19.472,1.59C24.138,1.59 28.51,3.42 31.816,6.728C35.096,10.019 37.014,14.485 36.923,19.13C36.736,28.685 29.191,36.001 19.484,36.303C16.59,36.393 12.193,35.094 9.895,33.434L3.18,35.524Z" style="fill:url(#_Linear1);fill-rule:nonzero;"/>
    </g>
    <g transform="matrix(0.962175,0,0,0.962175,0.491725,0.491725)">
        <path d="M20.568,18.358C20.254,19.243 19.01,19.978 18.017,20.192C17.337,20.337 16.45,20.452 13.463,19.214C9.643,17.631 7.183,13.749 6.991,13.497C6.807,13.245 5.447,11.442 5.447,9.576C5.447,7.711 6.395,6.802 6.777,6.412C7.09,6.092 7.609,5.946 8.106,5.946C8.267,5.946 8.411,5.954 8.541,5.96C8.923,5.977 9.115,5.999 9.367,6.602C9.68,7.358 10.444,9.223 10.535,9.415C10.628,9.607 10.72,9.867 10.59,10.119C10.469,10.379 10.361,10.494 10.17,10.715C9.978,10.936 9.796,11.105 9.604,11.343C9.429,11.549 9.23,11.77 9.451,12.152C9.672,12.525 10.436,13.772 11.561,14.773C13.012,16.065 14.188,16.478 14.609,16.653C14.923,16.783 15.296,16.752 15.525,16.508C15.816,16.195 16.176,15.675 16.541,15.163C16.801,14.796 17.129,14.75 17.474,14.88C17.825,15.002 19.682,15.92 20.064,16.11C20.446,16.302 20.698,16.393 20.791,16.554C20.882,16.715 20.882,17.47 20.568,18.358Z" style="fill:rgb(250,250,250);fill-rule:nonzero;"/>
    </g>
    <defs>
        <linearGradient id="_Linear1" x1="0" y1="0" x2="1" y2="0" gradientUnits="userSpaceOnUse" gradientTransform="matrix(2.16762e-15,-35.4,35.4,2.16762e-15,19.404,36.983)"><stop offset="0" style="stop-color:rgb(32,176,56);stop-opacity:1"/><stop offset="1" style="stop-color:rgb(96,214,106);stop-opacity:1"/></linearGradient>
    </defs>
</svg>
